<?xml version="1.0" encoding="utf-8"?>
<!-- Generator: Adobe Illustrator 24.1.2, SVG Export Plug-In . SVG Version: 6.00 Build 0)  -->
<svg version="1.1" id="Layer_1" xmlns="http://www.w3.org/2000/svg" xmlns:xlink="http://www.w3.org/1999/xlink" x="0px" y="0px"
	 viewBox="0 0 132.2 132.2" style="enable-background:new 0 0 132.2 132.2;" xml:space="preserve">
<style type="text/css">
	.st0{fill:#D8D8D8;}
	.st1{fill:#114E4E;}
	.st2{fill:#A2DEAF;}
	.st3{fill:#438792;}
</style>
<g>
	<polygon class="st0" points="0,132.2 132.2,132.2 132.2,0 0,0 	"/>
	<path class="st1" d="M132.2,25.2L132.2,25.2c-2.4,0-2.4,3.7,0,3.7l0,0V25.2L132.2,25.2z"/>
	<path class="st1" d="M18.2,14.6c1,0,1.9-0.9,1.8-1.8c0-1-0.8-1.8-1.8-1.8h-0.8c-1,0-1.9,0.9-1.8,1.8c0,1,0.8,1.8,1.8,1.8H18.2
		L18.2,14.6z"/>
	<path class="st2" d="M80.1,72.5c2.4,0,2.4-3.7,0-3.7S77.7,72.5,80.1,72.5L80.1,72.5z"/>
	<path class="st3" d="M79.3,18.8c-2.4,0-2.4,3.7,0,3.7S81.7,18.8,79.3,18.8L79.3,18.8z"/>
	<path class="st3" d="M21.4,81.2c2.4,0,2.4-3.7,0-3.7S19,81.2,21.4,81.2L21.4,81.2z"/>
	<path class="st2" d="M87.2,114.5c2.4,0,2.4-3.7,0-3.7C84.9,110.8,84.9,114.5,87.2,114.5L87.2,114.5z"/>
	<path class="st3" d="M51.6,55.8c2.4,0,2.4-3.7,0-3.7C49.2,52.1,49.2,55.8,51.6,55.8L51.6,55.8z"/>
	<path class="st1" d="M49.4,28.6c0-1-0.8-1.9-1.8-1.9h-0.8c-1,0-1.9,0.9-1.9,1.9s0.8,1.9,1.9,1.9h0.8C48.6,30.5,49.5,29.6,49.4,28.6
		L49.4,28.6z"/>
	<path class="st2" d="M8.7,50.6c-1,0-1.9,0.9-1.8,1.9c0,1,0.8,1.8,1.8,1.8h0.8c1,0,1.9-0.9,1.8-1.8c0-1-0.8-1.9-1.8-1.9H8.7
		L8.7,50.6z"/>
	<path class="st3" d="M58.7,93.9c2.4,0,2.4-3.7,0-3.7C56.3,90.2,56.3,93.9,58.7,93.9L58.7,93.9z"/>
	<path class="st2" d="M34.1,114.5c2.4,0,2.4-3.7,0-3.7C31.7,110.8,31.7,114.5,34.1,114.5L34.1,114.5z"/>
	<path class="st1" d="M15.1,100.3c2.4,0,2.4-3.7,0-3.7C12.7,96.6,12.7,100.3,15.1,100.3L15.1,100.3z"/>
	<path class="st3" d="M66.6,121.7c2.4,0,2.4-3.7,0-3.7S64.2,121.7,66.6,121.7L66.6,121.7z"/>
	<path class="st1" d="M113.9,123.8v0.8c0,1,0.9,1.9,1.8,1.8c1,0,1.9-0.8,1.9-1.8v-0.8c0-1-0.9-1.9-1.9-1.8
		C114.8,122,113.9,122.7,113.9,123.8L113.9,123.8z"/>
	<path class="st3" d="M101.5,93.9c2.4,0,2.4-3.7,0-3.7C99.1,90.2,99.1,93.9,101.5,93.9L101.5,93.9z"/>
	<path class="st3" d="M111,58.5c-1,0-1.9,0.9-1.8,1.9c0,1,0.8,1.8,1.8,1.8h0.8c1,0,1.9-0.9,1.9-1.8c0-1-0.8-1.9-1.9-1.9H111
		L111,58.5z"/>
	<path class="st1" d="M82.5,45c-2.4,0-2.4,3.7,0,3.7S84.9,45,82.5,45L82.5,45z"/>
	<path class="st2" d="M106.3,29.1c-1,0-1.9,0.9-1.8,1.9c0,1,0.8,1.8,1.8,1.8h0.8c1,0,1.9-0.9,1.8-1.8c0-1-0.8-1.9-1.8-1.9H106.3
		L106.3,29.1z"/>
	<path class="st1" d="M101.5,4.6c-2.4,0-2.4,3.7,0,3.7S103.9,4.6,101.5,4.6L101.5,4.6z"/>
	<path class="st2" d="M50,6.9c-2.4,0-2.4,3.7,0,3.7S52.4,6.9,50,6.9L50,6.9z"/>
	<path class="st3" d="M27,37.6c2.4,0,2.4-3.7,0-3.7S24.6,37.6,27,37.6L27,37.6z"/>
	<path class="st1" d="M0,28.9c2.3,0,2.3-3.7,0-3.7V28.9L0,28.9z"/>
	<path class="st3" d="M4.8,128.8c2.4,0,2.4-3.7,0-3.7S2.4,128.8,4.8,128.8L4.8,128.8z"/>
	<path class="st1" d="M128.5,82c2.4,0,2.4-3.7,0-3.7S126.1,82,128.5,82L128.5,82z"/>
	<path class="st1" d="M46,73.6c-2.4,0-2.4,3.7,0,3.7S48.4,73.6,46,73.6L46,73.6z"/>
	<path class="st2" d="M122.1,104.2c2.4,0,2.4-3.7,0-3.7C119.8,100.5,119.8,104.2,122.1,104.2L122.1,104.2z"/>
	<path class="st1" d="M76.9,97.9c2.4,0,2.4-3.7,0-3.7C74.6,94.2,74.5,97.9,76.9,97.9L76.9,97.9z"/>
</g>
</svg>
