<svg xmlns="http://www.w3.org/2000/svg" viewBox="0 0 241 201"><defs><style>.cls-1{fill:#d8d8d8;}.cls-2{fill:#114e4e;}.cls-3{fill:#a2deaf;}.cls-4{fill:#438792;}.cls-5{fill:#f2cec4;}.cls-6{fill:#bd1010;}.cls-7{fill:#e95626;}.cls-8{fill:#fff;}.cls-9{fill:#eab052;}</style></defs><g id="Fondo_puntos_2" data-name="Fondo puntos 2"><polygon class="cls-1" points="0 201 241 201 241 0 0 0 0 201"/><path class="cls-2" d="M241,38.31h0c-4.38,0-4.38,5.63,0,5.63h0V38.31Z" transform="translate(0 0)"/><path class="cls-2" d="M33.18,22.2c1.82,0,3.46-1.37,3.28-2.74a3,3,0,0,0-3.28-2.74H31.72c-1.82,0-3.46,1.37-3.28,2.74a3,3,0,0,0,3.28,2.74Z" transform="translate(0 0)"/><path class="cls-3" d="M146,110.23c4.38,0,4.38-5.62,0-5.62s-4.37,5.62,0,5.62Z" transform="translate(0 0)"/><path class="cls-4" d="M144.56,28.58c-4.37,0-4.37,5.63,0,5.63s4.38-5.63,0-5.63Z" transform="translate(0 0)"/><path class="cls-4" d="M39,123.46c4.38,0,4.38-5.63,0-5.63s-4.37,5.63,0,5.63Z" transform="translate(0 0)"/><path class="cls-3" d="M159,174.09c4.37,0,4.37-5.63,0-5.63-4.2,0-4.2,5.63,0,5.63Z" transform="translate(0 0)"/><path class="cls-4" d="M94.07,84.84c4.37,0,4.37-5.63,0-5.63s-4.38,5.63,0,5.63Z" transform="translate(0 0)"/><path class="cls-2" d="M90.06,43.48a3.15,3.15,0,0,0-3.29-2.88H85.32c-1.83,0-3.47,1.36-3.47,2.88a3.21,3.21,0,0,0,3.47,2.89h1.45c1.83,0,3.47-1.37,3.29-2.89Z" transform="translate(0 0)"/><path class="cls-3" d="M15.86,76.93c-1.82,0-3.46,1.37-3.28,2.89a3,3,0,0,0,3.28,2.74h1.46c1.82,0,3.46-1.37,3.28-2.74a3.15,3.15,0,0,0-3.28-2.89Z" transform="translate(0 0)"/><path class="cls-4" d="M107,142.77c4.38,0,4.38-5.63,0-5.63s-4.38,5.63,0,5.63Z" transform="translate(0 0)"/><path class="cls-3" d="M62.16,174.09c4.38,0,4.38-5.63,0-5.63s-4.37,5.63,0,5.63Z" transform="translate(0 0)"/><path class="cls-2" d="M27.53,152.5c4.37,0,4.37-5.63,0-5.63s-4.38,5.63,0,5.63Z" transform="translate(0 0)"/><path class="cls-4" d="M121.41,185c4.38,0,4.38-5.63,0-5.63s-4.37,5.63,0,5.63Z" transform="translate(0 0)"/><path class="cls-2" d="M207.64,188.23v1.21a3,3,0,0,0,3.28,2.74c1.82,0,3.46-1.21,3.46-2.74v-1.21a3.11,3.11,0,0,0-3.46-2.74c-1.64,0-3.28,1.07-3.28,2.74Z" transform="translate(0 0)"/><path class="cls-4" d="M185,142.77c4.38,0,4.38-5.63,0-5.63s-4.37,5.63,0,5.63Z" transform="translate(0 0)"/><path class="cls-4" d="M202.35,88.94c-1.82,0-3.46,1.37-3.28,2.89a3,3,0,0,0,3.28,2.74h1.46c1.82,0,3.46-1.37,3.46-2.74a3.2,3.2,0,0,0-3.46-2.89Z" transform="translate(0 0)"/><path class="cls-2" d="M150.4,68.42c-4.38,0-4.38,5.62,0,5.62s4.37-5.62,0-5.62Z" transform="translate(0 0)"/><path class="cls-3" d="M193.78,44.24c-1.82,0-3.46,1.37-3.28,2.89a3,3,0,0,0,3.28,2.74h1.46c1.83,0,3.47-1.37,3.28-2.74a3.14,3.14,0,0,0-3.28-2.89Z" transform="translate(0 0)"/><path class="cls-2" d="M185,7c-4.37,0-4.37,5.63,0,5.63S189.41,7,185,7Z" transform="translate(0 0)"/><path class="cls-3" d="M91.15,10.49c-4.38,0-4.38,5.63,0,5.63s4.37-5.63,0-5.63Z" transform="translate(0 0)"/><path class="cls-4" d="M49.22,57.17c4.38,0,4.38-5.63,0-5.63s-4.37,5.63,0,5.63Z" transform="translate(0 0)"/><path class="cls-2" d="M0,43.94c4.19,0,4.19-5.63,0-5.63v5.63Z" transform="translate(0 0)"/><path class="cls-4" d="M8.75,195.83c4.38,0,4.38-5.62,0-5.62s-4.37,5.62,0,5.62Z" transform="translate(0 0)"/><path class="cls-2" d="M234.25,124.67c4.38,0,4.38-5.62,0-5.62s-4.37,5.62,0,5.62Z" transform="translate(0 0)"/><path class="cls-2" d="M83.86,111.9c-4.38,0-4.38,5.63,0,5.63s4.37-5.63,0-5.63Z" transform="translate(0 0)"/><path class="cls-3" d="M222.59,158.43c4.37,0,4.37-5.63,0-5.63-4.2,0-4.2,5.63,0,5.63Z" transform="translate(0 0)"/><path class="cls-2" d="M140.19,148.85c4.37,0,4.37-5.63,0-5.63-4.19,0-4.38,5.63,0,5.63Z" transform="translate(0 0)"/></g><g id="Pavo"><path d="M141.35,137.61c-10.59,8.07-21.23,10-32.72,2.68-1,1.48-1.91,2.85-2.89,4.15a21.83,21.83,0,0,1-18,8.94c-2.38,0-3.69.38-4.19,3.15-.7,3.81-2.12,7.49-3.26,11.33,1.11.73,2.15,1.33,3.1,2.06a8.67,8.67,0,0,1,3.6,8.7,9.64,9.64,0,0,1-6,7.72,7.65,7.65,0,0,1-9.25-2.72,3.48,3.48,0,0,0-4.13-1.55c-6.77,1.39-11.77-3.16-10.39-9.28a7.82,7.82,0,0,1,6.88-6.26c3.16-.47,4.44-2.23,5.21-5.25a49.24,49.24,0,0,1,2.9-8.22c1-2.3,1.08-3.83-.83-5.55-6.53-5.86-7.85-13.5-6.56-21.73,1.47-9.43,5.37-17.93,10.38-26,1.7-2.72,3.36-5.45,5.29-8.58C79.2,92.45,78.14,93.45,77,94.4a5.72,5.72,0,0,1-8.11-.59c-3.29-4-4.34-8.84-5.41-13.72-.48-2.22-1.33-4.35-2-6.52l-.92,0c-.77,2.9-1.44,5.83-2.35,8.68a12,12,0,0,1-1.84,2.8c-.9-.71-2.11-1.23-2.67-2.15-3.15-5.1-3.43-10.85-2.47-16.44a118,118,0,0,1,4.57-16.8c1.34-4.06,4.12-4.42,6.61-.93,2.72,3.79,5,7.86,7.68,12,1.55-6.35,4.1-12.15,10.11-15.19,5.55-2.81,11.36-5.53,17.88-1.56,1.4-6.18,2.81-11.89,3.92-17.64.44-2.29,1.58-3.7,3.65-4.23,7.86-2.06,15.54-5.26,24-4.07a6.36,6.36,0,0,0,5.28-1.58,9,9,0,0,1,12.63.89,70.12,70.12,0,0,1,4.75,6.68c1.66,2.54,3.44,4.84,6.76,5.2.3,0,.59.33.84.55.1.09.07.32.16.76l-3.58.36c1.21,1,2.11,1.72,2.94,2.5a9.88,9.88,0,0,1,1,1.35c-.51.39-1,1-1.55,1.1a9,9,0,0,1-2.7-.36,9.36,9.36,0,0,1-3.16-.9,5.62,5.62,0,0,1-1.75-2.54c-1.27-3.29-2.07-6.82-3.74-9.89a13.08,13.08,0,0,0-5.11-4.56c-.89-.5-2,.27-3.23.62a.48.48,0,0,0-.16.85c1.69,1.27,3.08,1.72,3.81,3.2,1.36,2.76,1.88,5.94,2.74,8.94.92,3.25,1.83,6.49,2.76,9.82,4.21.49,8.29.84,12.33,1.47,6.15,1,10,4.82,12.49,10.33.17.38.35.75.8,1.69.91-2.17,1.6-3.88,2.34-5.57a54.48,54.48,0,0,1,3-6.62c2.22-3.67,5.45-3.72,7.42.08a80.93,80.93,0,0,1,4.73,11.8c2,6.2,2.74,12.57,1,19a16.54,16.54,0,0,1-1.62,3.8c-.39.7-1.31,1.72-1.77,1.61a3.19,3.19,0,0,1-1.8-1.82,62.71,62.71,0,0,0-3.37-7.8c-.1,1-.19,1.92-.29,2.87-.52,4.83-.65,9.75-1.66,14.47-1.27,5.93-4.89,7.67-10.52,5.35-2.66-1.09-5-2.91-8.19-4.79.63,1.46.87,2.74,1.59,3.62,7.85,9.63,14,20.11,16.84,32.34a27.53,27.53,0,0,1-4.91,23.41,3.25,3.25,0,0,0-.4,3.79c1.71,3.61,3.26,7.31,5.13,10.84a7.15,7.15,0,0,0,2.95,2.48c1.51.83,3.25,1.24,4.78,2.05,3.69,1.93,5,4.89,3.93,8.36a7.14,7.14,0,0,1-8.37,5,4.68,4.68,0,0,0-4.92,1.67c-3,3.1-6.38,3.59-9.41,1.7-3.86-2.41-5.82-7-4.31-10.72a9,9,0,0,1,2.81-3.3c1.14-.92,1.19-1.67.6-2.94-1.61-3.44-3.25-6.87-4.57-10.43a4.49,4.49,0,0,0-3.29-3.24c-7.57-2.11-13.75-6.5-19-12.24C142.26,138.85,141.86,138.27,141.35,137.61Zm19.33-53.09c-1.18.93-2,1.44-2.65,2.09-5.66,5.49-12.39,6-19.39,3.68-6.49-2.12-10.54-7.06-13.47-13.07a23,23,0,0,0-3.07-3.9,27.63,27.63,0,0,0-2,4.48c-1.33,5.07-2.44,10.29-6.52,13.94-5.28,4.74-11.29,8.35-18.66,5.78-3.42-1.19-6.32-3.88-9.3-5.8a1.6,1.6,0,0,0,0,.78C89,110,95.21,125.92,110,137.2a20.74,20.74,0,0,0,15.11,4.49c5.66-.59,10.37-3.37,14.69-6.86a45.83,45.83,0,0,0,15.37-23A148,148,0,0,0,160.68,84.52Zm-.52-24.69c-.29-1.78-.49-3.24-.78-4.68s-.73-2.86-1-4.31a7.16,7.16,0,0,0-8.73-6,28.69,28.69,0,0,0-5.91,2c-5.38,2.45-10.7,5-16,7.61a13,13,0,0,1-10.85.75c-5.25-2.07-10.37-4.47-15.6-6.57a61,61,0,0,0-9.83-3.29C88,44.57,86,46,85.51,49.5,84.67,55.24,84.19,61,83.6,66.81a13.66,13.66,0,0,0,.18,2.42c1.36-.22,2.46-.38,3.55-.57a97.7,97.7,0,0,1,26.49-1.3,33.09,33.09,0,0,0,12.57-1.18c6.19-1.71,12.45-3.22,18.76-4.43C150,60.82,154.94,60.47,160.16,59.83ZM81.94,95.25c-.31.43-.85,1.1-1.29,1.82-3.67,6.09-7.27,12.16-9.54,19-1.77,5.33-3.49,10.53-3.35,16.18.29,10.91,10.93,21.15,23.63,17.49a24.64,24.64,0,0,0,13.22-9.09c1.26-1.64,1.24-2.41-.24-3.77a56.71,56.71,0,0,1-14.21-19.43C87.07,110.27,84.68,102.76,81.94,95.25Zm61.44,40.92c5.85,5.21,11.69,10.42,19.48,12.56,4.65,1.27,8.43,0,11.35-4.15a25,25,0,0,0,4.51-19.27c-2-11.72-7.66-21.71-15-30.87-.12-.15-.45-.14-.68-.2C158.36,117,156.12,121.8,143.38,136.17Zm2-93.57c-.3-.89-.6-1.68-.82-2.5-1.43-5.26-2.77-10.54-4.31-15.77a3.12,3.12,0,0,0-2-1.9c-9.84-1.42-19.58-1.19-29.13,2a6.09,6.09,0,0,0-4.27,4.78c-1.13,4.73-2.44,9.42-3.51,14.17a2.74,2.74,0,0,0,1,2.4c5.08,2.24,10.16,4.52,15.41,6.3a10.54,10.54,0,0,0,6.81.12C131.62,49.27,138.46,45.84,145.4,42.6Zm15.12,3.14c.9,4.06,1.75,8,2.65,11.91.17.71.4,1.93.78,2,2.11.41,2.34,2,2.22,3.53a24.67,24.67,0,0,1-1,4.44,11.8,11.8,0,0,0-.83,2.35c-.09,3.73-.05,7.47,0,11.21,0,.42-.06,1,.18,1.24,2.39,2.09,4.58,4.59,7.32,6.06,4.43,2.37,6.27,1.42,7-3.5.85-5.39,1-10.89,1.76-16.3.19-1.42,1.44-2.69,2.2-4,1.44.91,3.12,1.59,4.25,2.79s1.39,2.72,2.11,4.24c2.76-6.06-1.36-24.49-6.61-28.78-.81,1.78-1.61,3.46-2.35,5.16-1.27,3-2.34,6-3.83,8.84a4,4,0,0,1-3,1.84c-.84,0-1.85-1.32-2.45-2.26a32.41,32.41,0,0,1-1.3-3.38C167.68,49,164.73,46.26,160.52,45.74ZM55.66,78.19a52.93,52.93,0,0,1,2.21-6.35c.5-1,1.79-2.32,2.72-2.32a4.2,4.2,0,0,1,3.19,2c1.35,3.07,2.21,6.35,3.33,9.53,1.17,3.35,2.22,6.76,3.71,10,1.09,2.34,2.41,2.49,4.28.77,1.71-1.58,3.14-3.45,4.73-5.16s1.69-7.24-.11-8.3c-2-1.21-2.38-3.06-2.94-5-.46-1.59-.21-2.85,1.72-3,1.71-.13,1.8-1.17,1.83-2.52.06-2.78.15-5.57.41-8.33.36-3.72.89-7.42,1.36-11.24-5.16,3.15-7.32,6.8-8.58,13.73-.23,1.29-1.27,2.43-1.94,3.64-1.32-.81-3-1.33-3.88-2.48-1.62-2.13-2.69-4.66-4.1-7-1.24-2-2.62-4-3.94-6l-.78.22C55.69,59.49,52.88,68.49,55.66,78.19Zm44,16.11a23.24,23.24,0,0,0,4-.74c5.78-2.13,11.84-10,11.12-17.86-.29-3.18-1.62-5-4.72-5.22A78.52,78.52,0,0,0,88.9,72.07a3.92,3.92,0,0,0-3.34,4.59A30.47,30.47,0,0,0,87,83.77C89.42,90.32,91.57,93.66,99.65,94.3Zm46.23-6.43c2.33-.81,4.86-1.28,7-2.5,5.53-3.21,7.59-10.42,5.49-17.47-.73-2.44-2.2-3.72-4.68-3.67a53.93,53.93,0,0,0-8,.51,126.83,126.83,0,0,0-13.39,3c-2.48.73-3.54,3-3.07,5.63C130.51,81.1,137.84,87.3,145.88,87.87ZM76.39,151.44c-1.76,4.84-3.53,9.46-5.13,14.13-.7,2-1.78,3.19-4,3.34-2.42.16-4.83.94-5.86,3.27a6.82,6.82,0,0,0-.23,4.84c.36.91,2.36,1.28,3.69,1.63a4.62,4.62,0,0,0,2.57-.19c3.32-1.21,5.34.19,7.09,2.94a4.4,4.4,0,0,0,5.39,2.09c2-.73,4-4.16,3.85-6.66a5.94,5.94,0,0,0-4-5.56c-3.42-1.37-3.44-1.36-2.57-5,.21-.84.58-1.64.83-2.47,1.06-3.53,2.1-7.07,3.14-10.59Zm91.31,1.14c1.72,4,3.3,7.84,5,11.62s1.7,3.63-1.47,6.14c-2.73,2.17-2.91,5.16-.5,8,2.07,2.4,4.64,2.71,6.65.09,2.23-2.91,4.3-4.18,8-2.67A3.5,3.5,0,0,0,190,173.3a3.82,3.82,0,0,0-1.87-4.89,15.62,15.62,0,0,0-4.53-1.83c-3.38-.73-5.22-2.69-6.3-6.07s-2.71-6.68-4.1-10Z" transform="translate(0 0)"/><path class="cls-5" d="M160.68,84.52a148,148,0,0,1-5.54,27.3,45.83,45.83,0,0,1-15.37,23c-4.32,3.49-9,6.27-14.69,6.86A20.74,20.74,0,0,1,110,137.2C95.21,125.92,89,110,85.59,92.5a1.6,1.6,0,0,1,0-.78c3,1.92,5.88,4.61,9.3,5.8,7.37,2.57,13.38-1,18.66-5.78,4.08-3.65,5.19-8.87,6.52-13.94a27.63,27.63,0,0,1,2-4.48,23,23,0,0,1,3.07,3.9c2.93,6,7,11,13.47,13.07,7,2.28,13.73,1.81,19.39-3.68C158.7,86,159.5,85.45,160.68,84.52Z" transform="translate(0 0)"/><path class="cls-5" d="M160.16,59.83c-5.22.64-10.17,1-15,1.92-6.31,1.21-12.57,2.72-18.76,4.43a33.09,33.09,0,0,1-12.57,1.18,97.7,97.7,0,0,0-26.49,1.3c-1.09.19-2.19.35-3.55.57a13.66,13.66,0,0,1-.18-2.42c.59-5.78,1.07-11.57,1.91-17.31C86,46,88,44.57,91.44,45.29a61,61,0,0,1,9.83,3.29c5.23,2.1,10.35,4.5,15.6,6.57a13,13,0,0,0,10.85-.75c5.32-2.59,10.64-5.16,16-7.61a28.69,28.69,0,0,1,5.91-2,7.16,7.16,0,0,1,8.73,6c.27,1.45.71,2.87,1,4.31S159.87,58.05,160.16,59.83Z" transform="translate(0 0)"/><path class="cls-5" d="M81.94,95.25c2.74,7.51,5.13,15,8.22,22.24a56.71,56.71,0,0,0,14.21,19.43c1.48,1.36,1.5,2.13.24,3.77a24.64,24.64,0,0,1-13.22,9.09c-12.7,3.66-23.34-6.58-23.63-17.49-.14-5.65,1.58-10.85,3.35-16.18,2.27-6.88,5.87-13,9.54-19C81.09,96.35,81.63,95.68,81.94,95.25Z" transform="translate(0 0)"/><path class="cls-5" d="M143.38,136.17c12.74-14.37,15-19.16,19.69-41.93.23.06.56.05.68.2,7.31,9.16,13,19.15,15,30.87a25,25,0,0,1-4.51,19.27c-2.92,4.13-6.7,5.42-11.35,4.15C155.07,146.59,149.23,141.38,143.38,136.17Z" transform="translate(0 0)"/><path class="cls-6" d="M145.4,42.6c-6.94,3.24-13.78,6.67-20.84,9.58a10.54,10.54,0,0,1-6.81-.12c-5.25-1.78-10.33-4.06-15.41-6.3a2.74,2.74,0,0,1-1-2.4c1.07-4.75,2.38-9.44,3.51-14.17a6.09,6.09,0,0,1,4.27-4.78c9.55-3.17,19.29-3.4,29.13-2a3.12,3.12,0,0,1,2,1.9c1.54,5.23,2.88,10.51,4.31,15.77C144.8,40.92,145.1,41.71,145.4,42.6Z" transform="translate(0 0)"/><path class="cls-5" d="M160.52,45.74c4.21.52,7.16,3.3,9.1,7.37a32.41,32.41,0,0,0,1.3,3.38c.6.94,1.61,2.25,2.45,2.26a4,4,0,0,0,3-1.84c1.49-2.84,2.56-5.89,3.83-8.84.74-1.7,1.54-3.38,2.35-5.16,5.25,4.29,9.37,22.72,6.61,28.78-.72-1.52-1.11-3.17-2.11-4.24s-2.81-1.88-4.25-2.79c-.76,1.33-2,2.6-2.2,4-.75,5.41-.91,10.91-1.76,16.3-.77,4.92-2.61,5.87-7,3.5-2.74-1.47-4.93-4-7.32-6.06-.24-.21-.18-.82-.18-1.24,0-3.74,0-7.48,0-11.21a11.8,11.8,0,0,1,.83-2.35,24.67,24.67,0,0,0,1-4.44c.12-1.57-.11-3.12-2.22-3.53-.38-.07-.61-1.29-.78-2C162.27,53.73,161.42,49.8,160.52,45.74Z" transform="translate(0 0)"/><path class="cls-5" d="M55.66,78.19c-2.78-9.7,0-18.7,3.22-27.65l.78-.22c1.32,2,2.7,3.92,3.94,6,1.41,2.3,2.48,4.83,4.1,7,.87,1.15,2.56,1.67,3.88,2.48.67-1.21,1.71-2.35,1.94-3.64,1.26-6.93,3.42-10.58,8.58-13.73-.47,3.82-1,7.52-1.36,11.24-.26,2.76-.35,5.55-.41,8.33,0,1.35-.12,2.39-1.83,2.52-1.93.14-2.18,1.4-1.72,3,.56,1.89.91,3.74,2.94,5,1.8,1.06,1.62,6.7.11,8.3s-3,3.58-4.73,5.16c-1.87,1.72-3.19,1.57-4.28-.77-1.49-3.21-2.54-6.62-3.71-10-1.12-3.18-2-6.46-3.33-9.53a4.2,4.2,0,0,0-3.19-2c-.93,0-2.22,1.3-2.72,2.32A52.93,52.93,0,0,0,55.66,78.19Z" transform="translate(0 0)"/><path class="cls-7" d="M99.65,94.3c-8.08-.64-10.23-4-12.62-10.53a30.47,30.47,0,0,1-1.47-7.11,3.92,3.92,0,0,1,3.34-4.59,78.52,78.52,0,0,1,21.19-1.59c3.1.25,4.43,2,4.72,5.22.72,7.82-5.34,15.73-11.12,17.86A23.24,23.24,0,0,1,99.65,94.3Z" transform="translate(0 0)"/><path class="cls-7" d="M145.88,87.87c-8-.57-15.37-6.77-16.74-14.54-.47-2.68.59-4.9,3.07-5.63a126.83,126.83,0,0,1,13.39-3,53.93,53.93,0,0,1,8-.51c2.48,0,4,1.23,4.68,3.67,2.1,7,0,14.26-5.49,17.47C150.74,86.59,148.21,87.06,145.88,87.87Z" transform="translate(0 0)"/><path class="cls-8" d="M76.39,151.44l4.71,1.82c-1,3.52-2.08,7.06-3.14,10.59-.25.83-.62,1.63-.83,2.47-.87,3.59-.85,3.58,2.57,5a5.94,5.94,0,0,1,4,5.56c.13,2.5-1.8,5.93-3.85,6.66a4.4,4.4,0,0,1-5.39-2.09c-1.75-2.75-3.77-4.15-7.09-2.94a4.62,4.62,0,0,1-2.57.19c-1.33-.35-3.33-.72-3.69-1.63a6.82,6.82,0,0,1,.23-4.84c1-2.33,3.44-3.11,5.86-3.27,2.26-.15,3.34-1.3,4-3.34C72.86,160.9,74.63,156.28,76.39,151.44Z" transform="translate(0 0)"/><path class="cls-8" d="M167.7,152.58l5.48-2.07c1.39,3.32,3,6.57,4.1,10s2.92,5.34,6.3,6.07a15.62,15.62,0,0,1,4.53,1.83A3.82,3.82,0,0,1,190,173.3a3.5,3.5,0,0,1-4.59,2.42c-3.7-1.51-5.77-.24-8,2.67-2,2.62-4.58,2.31-6.65-.09-2.41-2.8-2.23-5.79.5-8,3.17-2.51,3.12-2.49,1.47-6.14S169.42,156.59,167.7,152.58Z" transform="translate(0 0)"/><path class="cls-9" d="M98.49,99.53A15.54,15.54,0,0,1,94.15,99c-5.61-1.6-8.76-5.81-10.89-9.3A39.6,39.6,0,0,1,81,85.13c-.22-.5-.45-1-.67-1.49s-.48-1.11-.7-1.67a7.86,7.86,0,0,0-2.43-3.87c-1.45-1.11-1.75-3.22-2-5.09,0-.31-.09-.62-.13-.91a2,2,0,0,1,.44-1.57A4.28,4.28,0,0,1,78,68.88c7.47-1.12,15.08-2.16,22.44-3.16l1-.13c.18,0,.54-.13.86-.21a7.68,7.68,0,0,1,2-.38h1.15c1.8.12,3.3.29,4.75.45,1.93.22,3.75.42,6.08.49.52,0,1,0,1.57,0a16.76,16.76,0,0,0,4.64-.54,173.23,173.23,0,0,1,39.48-7.24h.34c.17,0,4.21,0,4.65,2.13.52,2.51.86,5.09-.19,7a10.28,10.28,0,0,0-1.08,5c-.3,9.11-5.16,16.29-13,19.21a21.41,21.41,0,0,1-7.44,1.35,22.44,22.44,0,0,1-18.58-10.15c-.82-1.26-1.54-2.58-2.23-3.86-.57-1.06-1.17-2.16-1.8-3.18a1.76,1.76,0,0,0-.46-.42,2.67,2.67,0,0,0-.39.67c-.47,1.42-.9,2.89-1.31,4.32a62.5,62.5,0,0,1-2.57,7.65C115.07,94.44,106.55,99.53,98.49,99.53Zm6.06-28.08c-1.41.17-2.82.31-4.24.46-3.35.36-6.8.72-10.16,1.27a4.32,4.32,0,0,0-3,1.46A4.1,4.1,0,0,0,87,77.82,57.17,57.17,0,0,0,90.58,88c1.43,3.15,5.71,4.58,9.08,4.58h0a9.21,9.21,0,0,0,3-.44c5.78-2,11.49-9.6,10.45-17.29-.27-2-1.31-2.49-2.07-2.64a43.91,43.91,0,0,0-4.49-.59Zm46.12-5.88-1,.07a37.22,37.22,0,0,0-4,.44l-2.6.45a74.88,74.88,0,0,0-9.9,2.16,4,4,0,0,0-2.57,1.91,4.69,4.69,0,0,0,.25,3.59A27.88,27.88,0,0,0,134.74,81a13.81,13.81,0,0,0,10.64,4.79,12.3,12.3,0,0,0,7.14-2.14c4.13-3,5.59-7.2,4.59-13.37-.66-4.15-.94-4.68-6-4.68Z" transform="translate(0 0)"/><path d="M162.28,59.69c1.21,0,3.08.43,3.18.94.41,1.95.82,4.42,0,6a11.79,11.79,0,0,0-1.26,5.66c-.27,8.26-4.67,15.11-12,17.85a19.93,19.93,0,0,1-6.92,1.26,21,21,0,0,1-17.32-9.47c-1.47-2.25-2.59-4.73-4-7a8.45,8.45,0,0,0-2.05-1.7,10.45,10.45,0,0,0-1.49,2.27c-1.32,3.94-2.2,8.05-3.84,11.85-2.66,6.19-10.9,10.69-18,10.69a14.4,14.4,0,0,1-3.93-.52c-4.66-1.33-7.62-4.71-10-8.64A58.62,58.62,0,0,1,81.7,83c-1-2.14-1.39-4.44-3.58-6.11-1.16-.88-1.29-3.28-1.58-5-.07-.42,1-1.4,1.68-1.5,7.79-1.17,15.61-2.22,23.42-3.29a26.82,26.82,0,0,1,2.63-.57h1c4.15.28,6.73.82,10.88,1,.54,0,1.08,0,1.62,0a17.75,17.75,0,0,0,5.07-.6A172.53,172.53,0,0,1,162,59.7h.25m-16.9,27.56a13.72,13.72,0,0,0,8-2.42c5.16-3.7,6.13-9,5.19-14.83-.8-5-1.86-5.94-7.52-5.94h-.47a52.3,52.3,0,0,0-5.23.53,101.55,101.55,0,0,0-12.68,2.66c-3.64,1.16-4.72,3.93-3.26,7.49a29.31,29.31,0,0,0,4.14,7.15,15.24,15.24,0,0,0,11.81,5.35M99.66,94.12a10.87,10.87,0,0,0,3.47-.52c6.6-2.3,12.56-10.66,11.45-18.91-.27-2-1.27-3.5-3.26-3.91-2.19-.44-4.44-.56-6.77-.84-4.85.57-9.78,1-14.64,1.76-3.87.64-5.32,2.71-4.4,6.48a60.24,60.24,0,0,0,3.7,10.49c1.71,3.72,6.46,5.45,10.45,5.45m62.62-37.43-.43,0A174,174,0,0,0,122,64a14.84,14.84,0,0,1-4.21.47c-.51,0-1,0-1.53,0-2.26-.07-4.05-.27-6-.48-1.47-.17-3-.34-4.82-.46h-1.25a9.12,9.12,0,0,0-2.36.43l-.68.17-.92.13c-7.39,1-15,2-22.54,3.16a5.91,5.91,0,0,0-3.49,2.26,3.53,3.53,0,0,0-.7,2.7c0,.28.08.57.13.87.29,2,.65,4.59,2.59,6.07.94.71,1.33,1.64,1.94,3.22.22.57.45,1.15.73,1.76s.45,1,.67,1.47A40.17,40.17,0,0,0,82,90.43c2.09,3.43,5.58,8.2,11.75,10a17.06,17.06,0,0,0,4.76.64c8.62,0,17.74-5.49,20.76-12.5a66.7,66.7,0,0,0,2.63-7.83c.21-.74.42-1.45.63-2.15l.57,1c.71,1.31,1.44,2.66,2.29,4A24,24,0,0,0,145.21,94.4a22.77,22.77,0,0,0,8-1.45c8.31-3.09,13.68-11,14-20.56a9,9,0,0,1,.89-4.32c1.29-2.36.93-5.27.35-8.06-.66-3.16-5.21-3.32-6.12-3.32ZM150.74,67.07h.33c2.76,0,3.51.27,3.71.43s.47.6.85,3c.91,5.62-.32,9.29-4,11.91a10.8,10.8,0,0,1-6.27,1.86A12.28,12.28,0,0,1,135.91,80a26.19,26.19,0,0,1-3.7-6.4,3.3,3.3,0,0,1-.28-2.39,2.78,2.78,0,0,1,1.67-1.11A71,71,0,0,1,143.3,68l2.6-.46a36.68,36.68,0,0,1,3.83-.41l1-.07ZM99.66,91.12c-3,0-6.61-1.27-7.72-3.7a56.25,56.25,0,0,1-3.51-10,2.94,2.94,0,0,1,0-2,3.25,3.25,0,0,1,2-.8c3.32-.54,6.76-.9,10.08-1.25,1.37-.15,2.73-.29,4.08-.45l1.83.19a42.29,42.29,0,0,1,4.34.57c.32.07.72.15.89,1.37.91,6.77-4.24,13.86-9.46,15.67a7.89,7.89,0,0,1-2.49.36Z" transform="translate(0 0)"/></g></svg>