<?xml version="1.0" encoding="utf-8"?>
<!-- Generator: Adobe Illustrator 24.1.2, SVG Export Plug-In . SVG Version: 6.00 Build 0)  -->
<svg version="1.1" id="Capa_1" xmlns="http://www.w3.org/2000/svg" xmlns:xlink="http://www.w3.org/1999/xlink" x="0px" y="0px"
	 viewBox="0 0 121.7 121.7" style="enable-background:new 0 0 121.7 121.7;" xml:space="preserve">
<style type="text/css">
	.st0{fill-rule:evenodd;clip-rule:evenodd;fill:#A2DEAF;}
	.st1{fill-rule:evenodd;clip-rule:evenodd;fill:#114E4E;}
	.st2{fill-rule:evenodd;clip-rule:evenodd;fill:#FFFFFF;}
	.st3{fill-rule:evenodd;clip-rule:evenodd;fill:#E17334;}
	.st4{fill:#F2CEC4;}
	.st5{fill:#BD1010;}
	.st6{fill:#E95626;}
	.st7{fill:#FFFFFF;}
	.st8{fill:#EAB052;}
</style>
<desc>Created with Sketch.</desc>
<g>
	<g id="Card_1_">
		
			<g id="Group_3_" transform="translate(63.191223, 54.437060) rotate(-10.000000) translate(-63.191223, -54.437060) translate(7.318166, 11.294573)">
			<path id="Path_6_" class="st0" d="M97.9,8.9c2.9,0,5.3,1,7.4,3s3,4.5,3,7.4l0,62.3c0,2.9-1,5.3-3,7.4c-2,2-4.5,3-7.4,3l-90,0
				c-2.9,0-5.3-1-7.4-3c-2-2-3-4.5-3-7.4l0-62.3c0-2.9,1-5.3,3-7.4s4.5-3,7.4-3L97.9,8.9z"/>
			<path id="Path-Copy_3_" class="st1" d="M96.8,7.3c2.9,0,5.3,1,7.4,3s3,4.5,3,7.4l0,62.3c0,2.9-1,5.3-3,7.4c-2,2-4.5,3-7.4,3
				l-90,0c-2.9,0-5.3-1-7.4-3c-2-2-3-4.5-3-7.4l0-62.3c0-2.9,1-5.3,3-7.4s4.5-3,7.4-3L96.8,7.3z"/>
			<path id="Path_5_" class="st2" d="M100.2,80l0-62.3c0-1-0.3-1.8-1-2.5c-0.6-0.6-1.5-1-2.5-1l-90,0c-1,0-1.8,0.3-2.5,1
				c-0.6,0.6-1,1.5-1,2.5l0,62.3c0,1,0.3,1.8,1,2.5c0.6,0.6,1.5,1,2.5,1l90,0c1,0,1.8-0.3,2.5-1C99.9,81.8,100.2,81,100.2,80z"/>
			<path id="Combined-Shape_6_" class="st3" d="M68.2,62.7c-0.7,0-1.3-0.3-1.8-0.8c-0.5-0.5-0.8-1.1-0.8-1.8v-1.7
				c0-0.7,0.3-1.3,0.8-1.8c0.5-0.5,1.1-0.8,1.8-0.8l22.5,0c0.7,0,1.3,0.3,1.8,0.8c0.5,0.5,0.8,1.1,0.8,1.8l0,1.7
				c0,0.7-0.3,1.3-0.8,1.8c-0.5,0.5-1.1,0.8-1.8,0.8L68.2,62.7z M68.2,48.8c-0.7,0-1.3-0.3-1.8-0.8c-0.5-0.5-0.8-1.1-0.8-1.8v-1.7
				c0-0.7,0.3-1.3,0.8-1.8c0.5-0.5,1.1-0.8,1.8-0.8l22.5,0c0.7,0,1.3,0.3,1.8,0.8s0.8,1.1,0.8,1.8v1.7c0,0.7-0.3,1.3-0.8,1.8
				c-0.5,0.5-1.1,0.8-1.8,0.8L68.2,48.8z M68.2,35c-0.7,0-1.3-0.3-1.8-0.8c-0.5-0.5-0.8-1.1-0.8-1.8v-1.7c0-0.7,0.3-1.3,0.8-1.8
				c0.5-0.5,1.1-0.8,1.8-0.8l22.5,0c0.7,0,1.3,0.3,1.8,0.8c0.5,0.5,0.8,1.1,0.8,1.8v1.7c0,0.7-0.3,1.3-0.8,1.8S91.4,35,90.7,35
				L68.2,35z"/>
		</g>
	</g>
	<g>
		<g>
			<path d="M51.6,76.5c-3.5,3.4-7.3,4.6-11.8,2.5c-0.3,0.6-0.6,1.1-0.9,1.6c-1.4,2.4-3.5,3.7-6.1,4.1c-0.9,0.1-1.3,0.3-1.4,1.3
				c-0.1,1.4-0.4,2.8-0.7,4.3c0.4,0.2,0.8,0.4,1.2,0.6c1.1,0.7,1.8,1.7,1.7,3c0,1.3-0.7,2.4-1.8,3.1c-1,0.5-2.4,0.6-3.5-0.6
				c-0.5-0.5-0.9-0.6-1.6-0.4c-2.4,0.8-4.4-0.6-4.2-2.9c0.1-1.4,1-2.2,2.2-2.6c1.1-0.3,1.5-1,1.7-2.2c0.1-1.1,0.4-2.1,0.7-3.1
				c0.3-0.9,0.2-1.4-0.6-2c-2.7-1.8-3.5-4.6-3.4-7.6c0.1-3.5,1.1-6.8,2.6-9.9c0.5-1.1,1-2.1,1.5-3.4c-0.4,0.5-0.8,0.9-1.1,1.3
				c-0.8,0.9-2.1,1-3,0.2c-1.4-1.3-2-3-2.6-4.8c-0.3-0.8-0.7-1.5-1-2.3c-0.2,0-0.2,0-0.3,0.1c-0.1,1.1-0.3,2.2-0.5,3.3
				c-0.1,0.4-0.4,0.7-0.5,1.1c-0.4-0.2-0.8-0.4-1.1-0.7c-1.4-1.7-1.7-3.8-1.7-5.9c0.1-2.1,0.5-4.2,0.9-6.3c0.3-1.5,1.3-1.8,2.4-0.6
				c1.2,1.3,2.2,2.6,3.4,4c0.3-2.4,0.9-4.6,3-6c1.9-1.3,3.9-2.5,6.4-1.4c0.2-2.3,0.5-4.5,0.6-6.6c0.1-0.9,0.4-1.4,1.1-1.7
				c2.8-1.1,5.4-2.6,8.5-2.6c0.7,0,1.3-0.2,1.9-0.8c1.2-1.3,3.3-1.5,4.6-0.3c0.7,0.7,1.4,1.5,2,2.2c0.7,0.8,1.5,1.6,2.7,1.6
				c0.1,0,0.2,0.1,0.3,0.2c0,0,0,0.1,0.1,0.3c-0.4,0.1-0.7,0.2-1.3,0.3c0.5,0.3,0.8,0.5,1.2,0.8c0.2,0.1,0.3,0.3,0.4,0.4
				c-0.2,0.2-0.3,0.4-0.5,0.5c-0.3,0.1-0.7,0-1,0c-0.4,0-0.9,0-1.2-0.2c-0.3-0.2-0.6-0.5-0.8-0.8c-0.6-1.1-1.1-2.4-1.8-3.4
				c-0.5-0.6-1.3-1.1-2.1-1.4c-0.3-0.1-0.7,0.2-1.1,0.4c-0.1,0.1-0.1,0.2,0,0.3c0.7,0.4,1.2,0.5,1.5,1c0.6,0.9,1,2.1,1.4,3.1
				c0.5,1.1,1,2.3,1.5,3.5c1.6,0,3.1-0.1,4.6,0c2.3,0.1,3.9,1.3,5,3.2c0.1,0.1,0.2,0.3,0.4,0.6c0.2-0.8,0.4-1.5,0.6-2.1
				c0.3-0.9,0.4-1.7,0.8-2.6c0.6-1.4,1.8-1.6,2.7-0.3c0.9,1.3,1.6,2.7,2.3,4.1c1,2.2,1.6,4.5,1.2,6.9c-0.1,0.5-0.2,1-0.4,1.5
				c-0.1,0.3-0.4,0.7-0.6,0.7c-0.3,0-0.6-0.3-0.7-0.6c-0.5-0.9-0.9-1.8-1.6-2.7c0,0.4,0,0.7,0,1.1c0,1.8,0.2,3.6,0.1,5.4
				c-0.2,2.2-1.4,3-3.6,2.4c-1-0.3-2-0.8-3.2-1.4c0.3,0.5,0.4,1,0.7,1.2c3.3,3.1,6,6.7,7.6,11c1.1,3,0.9,6-0.7,8.8
				c-0.3,0.5-0.3,0.9,0,1.4c0.8,1.2,1.5,2.5,2.4,3.7c0.3,0.4,0.8,0.6,1.2,0.8c0.6,0.2,1.2,0.3,1.8,0.5c1.4,0.5,2.1,1.6,1.8,2.9
				c-0.2,1.3-1.4,2.3-2.8,2.2c-0.8-0.1-1.3,0.2-1.7,0.8c-0.9,1.3-2.2,1.6-3.3,1.1c-1.5-0.7-2.4-2.3-2.1-3.7c0.1-0.5,0.5-1,0.9-1.3
				c0.4-0.4,0.4-0.7,0.1-1.1c-0.7-1.2-1.5-2.4-2.1-3.6c-0.3-0.6-0.6-0.9-1.3-1c-2.9-0.4-5.3-1.7-7.5-3.6
				C52,76.9,51.8,76.7,51.6,76.5z M56.2,56.2c-0.4,0.4-0.7,0.6-0.9,0.9c-1.8,2.3-4.2,2.7-6.9,2.2c-2.5-0.5-4.2-2.1-5.5-4.1
				c-0.3-0.5-0.9-0.9-1.3-1.3c-0.2,0.6-0.5,1.1-0.5,1.7c-0.2,1.9-0.4,3.9-1.7,5.4c-1.7,2-3.7,3.6-6.5,3c-1.3-0.3-2.5-1.1-3.7-1.7
				c0-0.1,0,0.1,0,0.3c2.1,6.2,5.1,11.7,11,15.2c1.8,1,3.7,1.4,5.7,0.9c2-0.5,3.6-1.7,5-3.2c2.5-2.6,3.9-5.6,4.5-9.1
				C56,63.1,56.2,59.8,56.2,56.2z M54.8,47.2c-0.2-0.6-0.3-1.2-0.5-1.7c-0.2-0.5-0.4-1-0.6-1.5c-0.5-1.5-1.9-2.3-3.5-1.8
				c-0.7,0.2-1.4,0.6-2.1,1c-1.8,1.1-3.7,2.3-5.5,3.5c-1.2,0.8-2.5,1.1-3.9,0.8c-2-0.5-4-1.1-6-1.7c-1.2-0.3-2.5-0.6-3.7-0.7
				c-1.3-0.1-1.9,0.5-2,1.8c0,2.1,0.1,4.3,0.1,6.4c0,0.3,0.1,0.5,0.2,0.9c0.5-0.1,0.9-0.3,1.3-0.4c3.1-1,6.3-1.6,9.6-1.7
				c1.6,0,3.1-0.4,4.5-1c2.2-0.9,4.4-1.7,6.6-2.5C51.2,48.1,53,47.7,54.8,47.2z M28,63.8c-0.1,0.2-0.3,0.4-0.4,0.7
				c-1.1,2.4-2.1,4.8-2.6,7.4c-0.4,2-0.8,4-0.5,6.1c0.6,4,5,7.2,9.4,5.3c1.9-0.8,3.3-2.1,4.4-3.9c0.4-0.7,0.3-0.9-0.3-1.4
				c-2.5-1.7-4.6-3.8-6.1-6.4C30.5,69,29.3,66.4,28,63.8z M52.3,75.8c2.4,1.6,4.7,3.3,7.7,3.7c1.8,0.2,3.1-0.4,3.9-2
				c1.2-2.3,1.5-4.7,0.8-7.2c-1.3-4.2-3.8-7.6-6.9-10.6c-0.1,0-0.2,0-0.3,0C56.8,68.2,56.2,70,52.3,75.8z M48.7,41.6
				c-0.1-0.3-0.3-0.6-0.4-0.9c-0.8-1.9-1.5-3.7-2.3-5.5c-0.1-0.3-0.5-0.6-0.8-0.6c-3.7-0.1-7.2,0.5-10.5,2.1c-0.8,0.4-1.2,1-1.3,1.9
				c-0.2,1.8-0.5,3.5-0.6,5.3c0,0.3,0.2,0.8,0.5,0.8c2,0.6,3.9,1.2,5.9,1.6c0.8,0.2,1.8,0.1,2.5-0.3C43.9,44.7,46.3,43.1,48.7,41.6z
				 M54.3,42.1c0.5,1.4,1,2.8,1.5,4.2c0.1,0.3,0.2,0.7,0.4,0.7c0.8,0.1,0.9,0.6,1,1.2c0,0.6-0.1,1.1-0.2,1.7c0,0.3-0.2,0.6-0.2,0.9
				c0.1,1.4,0.3,2.7,0.5,4.1c0,0.2,0,0.4,0.1,0.4c1,0.7,1.9,1.5,3,1.9c1.7,0.7,2.3,0.2,2.4-1.6c0.1-2-0.1-4-0.1-6
				c0-0.5,0.4-1,0.6-1.6c0.6,0.3,1.2,0.4,1.7,0.8c0.4,0.3,0.6,0.9,1,1.4c0.7-2.3-1.6-8.9-3.7-10.2c-0.2,0.7-0.4,1.3-0.6,2
				c-0.3,1.1-0.6,2.3-1,3.4c-0.1,0.4-0.6,0.8-1,0.8c-0.3,0-0.7-0.4-1-0.7c-0.3-0.3-0.4-0.8-0.6-1.2C57.1,43,55.9,42.1,54.3,42.1z
				 M17.6,58.8c0.2-0.8,0.3-1.6,0.5-2.4c0.1-0.4,0.5-0.9,0.9-1c0.4,0,1,0.2,1.3,0.6c0.6,1.1,1.1,2.2,1.7,3.3
				c0.6,1.2,1.1,2.4,1.8,3.5c0.5,0.8,1,0.8,1.6,0.1c0.6-0.7,1-1.4,1.5-2.1c0.5-0.7,0.3-2.7-0.4-3c-0.8-0.3-1-1-1.3-1.7
				c-0.2-0.6-0.2-1,0.5-1.2c0.6-0.1,0.6-0.5,0.6-1c-0.1-1-0.2-2-0.2-3.1c0-1.4,0-2.7,0-4.2c-1.7,1.4-2.4,2.8-2.5,5.4
				c0,0.5-0.4,0.9-0.5,1.4c-0.5-0.2-1.2-0.3-1.5-0.7c-0.7-0.7-1.2-1.6-1.8-2.3c-0.5-0.7-1.1-1.3-1.7-2c-0.1,0-0.2,0.1-0.3,0.1
				C16.7,51.9,16.1,55.3,17.6,58.8z M34.4,62.6c0.5-0.1,1-0.2,1.4-0.5c2-1,3.9-4.2,3.2-7c-0.3-1.1-0.8-1.7-2-1.7
				c-2.6,0.1-5.2,0.7-7.7,1.6c-0.9,0.3-1.2,1-1,1.8c0.2,0.9,0.5,1.7,0.9,2.5C30.5,61.6,31.4,62.7,34.4,62.6z M50.9,58.1
				c0.8-0.4,1.7-0.7,2.4-1.2c1.9-1.4,2.3-4.2,1.2-6.6c-0.4-0.9-1-1.3-1.9-1.1c-1,0.1-2,0.3-2.9,0.6c-1.6,0.5-3.2,1-4.7,1.7
				c-0.9,0.4-1.2,1.2-0.9,2.2C45,56.4,48,58.3,50.9,58.1z M28.5,84.5c-0.4,1.8-0.9,3.6-1.2,5.4c-0.2,0.8-0.5,1.2-1.3,1.4
				c-0.9,0.2-1.7,0.6-2,1.5c-0.2,0.5-0.1,1.3,0.1,1.8c0.2,0.3,0.9,0.4,1.4,0.4c0.3,0,0.7,0,0.9-0.2c1.2-0.6,2-0.2,2.7,0.7
				c0.5,0.6,1.3,0.9,2.1,0.5c0.7-0.4,1.3-1.7,1.1-2.6c-0.2-1-0.8-1.6-1.7-1.8c-1.3-0.3-1.3-0.3-1.2-1.7c0-0.3,0.1-0.6,0.2-0.9
				c0.2-1.3,0.4-2.7,0.7-4C29.7,84.8,29.2,84.7,28.5,84.5z M61.9,80.7c0.8,1.4,1.6,2.7,2.4,4C65,86,65,85.9,64,87
				c-0.9,0.9-0.8,2,0.2,2.9c0.9,0.8,1.8,0.8,2.4-0.3c0.7-1.2,1.4-1.7,2.8-1.3c0.7,0.2,1.4-0.3,1.6-1.1c0.2-0.8-0.2-1.4-0.9-1.7
				c-0.5-0.2-1.1-0.4-1.7-0.5c-1.3-0.1-2-0.7-2.6-1.9c-0.6-1.2-1.3-2.3-2-3.5C63.1,80,62.6,80.3,61.9,80.7z"/>
			<path class="st4" d="M56.2,56.2c0.1,3.6-0.2,6.9-0.8,10.2c-0.6,3.5-2.1,6.5-4.5,9.1c-1.4,1.5-3,2.7-5,3.2c-2,0.5-3.9,0.1-5.7-0.9
				c-5.9-3.4-8.9-9-11-15.2c-0.1-0.2,0-0.3,0-0.3c1.2,0.6,2.4,1.4,3.7,1.7c2.8,0.6,4.8-1,6.5-3c1.3-1.5,1.5-3.5,1.7-5.4
				c0.1-0.6,0.4-1.2,0.5-1.7c0.4,0.4,1,0.8,1.3,1.3c1.3,2.1,3.1,3.7,5.5,4.1c2.7,0.5,5.1,0,6.9-2.2C55.5,56.8,55.8,56.6,56.2,56.2z"
				/>
			<path class="st4" d="M54.8,47.2c-1.9,0.5-3.7,0.8-5.4,1.4c-2.2,0.7-4.5,1.6-6.6,2.5c-1.5,0.6-2.9,1-4.5,1
				c-3.3,0.1-6.5,0.7-9.6,1.7c-0.4,0.1-0.8,0.2-1.3,0.4c-0.1-0.3-0.2-0.6-0.2-0.9c-0.1-2.1-0.1-4.3-0.1-6.4c0-1.3,0.7-1.9,2-1.8
				c1.3,0.1,2.5,0.4,3.7,0.7c2,0.5,4,1.2,6,1.7c1.4,0.4,2.7,0,3.9-0.8c1.8-1.2,3.6-2.4,5.5-3.5c0.6-0.4,1.3-0.7,2.1-1
				c1.5-0.5,3,0.3,3.5,1.8c0.2,0.5,0.4,1,0.6,1.5C54.5,46.1,54.7,46.6,54.8,47.2z"/>
			<path class="st4" d="M28,63.8c1.3,2.6,2.6,5.2,4,7.7c1.5,2.6,3.6,4.7,6.1,6.4c0.6,0.4,0.6,0.7,0.3,1.4c-1.1,1.8-2.5,3.1-4.4,3.9
				c-4.5,1.9-8.8-1.3-9.4-5.3c-0.3-2.1,0.1-4,0.5-6.1c0.5-2.6,1.5-5,2.6-7.4C27.7,64.2,27.9,63.9,28,63.8z"/>
			<path class="st4" d="M52.3,75.8c4-5.8,4.6-7.7,5.2-16.2c0.1,0,0.2,0,0.3,0c3.1,3,5.6,6.4,6.9,10.6c0.7,2.5,0.5,4.9-0.8,7.2
				c-0.9,1.6-2.2,2.3-3.9,2C57,79.1,54.6,77.5,52.3,75.8z"/>
			<path class="st5" d="M48.7,41.6c-2.4,1.5-4.7,3.1-7.2,4.5c-0.7,0.4-1.7,0.4-2.5,0.3c-2-0.4-4-1-5.9-1.6c-0.2-0.1-0.5-0.6-0.5-0.8
				c0.2-1.8,0.4-3.6,0.6-5.3c0.1-0.9,0.5-1.5,1.3-1.9c3.3-1.6,6.9-2.1,10.5-2.1c0.3,0,0.7,0.3,0.8,0.6c0.8,1.8,1.5,3.7,2.3,5.5
				C48.4,41,48.5,41.3,48.7,41.6z"/>
			<path class="st4" d="M54.3,42.1c1.6,0,2.8,0.9,3.7,2.3c0.2,0.4,0.4,0.8,0.6,1.2c0.3,0.3,0.7,0.7,1,0.7c0.4,0,0.9-0.4,1-0.8
				c0.4-1.1,0.7-2.3,1-3.4c0.2-0.7,0.4-1.3,0.6-2c2.1,1.3,4.5,7.8,3.7,10.2c-0.3-0.5-0.5-1.1-1-1.4c-0.5-0.4-1.1-0.6-1.7-0.8
				c-0.2,0.5-0.6,1-0.6,1.6c0,2,0.2,4,0.1,6c-0.1,1.8-0.7,2.3-2.4,1.6c-1.1-0.4-2-1.2-3-1.9c-0.1-0.1-0.1-0.3-0.1-0.4
				c-0.2-1.4-0.4-2.7-0.5-4.1c0-0.3,0.2-0.6,0.2-0.9c0.1-0.6,0.2-1.1,0.2-1.7c0-0.6-0.2-1.1-1-1.2c-0.1,0-0.3-0.4-0.4-0.7
				C55.3,44.9,54.8,43.5,54.3,42.1z"/>
			<path class="st4" d="M17.6,58.8c-1.5-3.4-0.9-6.8-0.1-10.2c0.1,0,0.2-0.1,0.3-0.1c0.6,0.7,1.2,1.3,1.7,2c0.6,0.8,1.1,1.6,1.8,2.3
				c0.4,0.4,1,0.5,1.5,0.7c0.2-0.5,0.5-0.9,0.5-1.4c0.1-2.6,0.8-4,2.5-5.4c0,1.4,0,2.8,0,4.2c0,1,0.1,2,0.2,3.1
				c0.1,0.5,0.1,0.9-0.6,1c-0.7,0.1-0.7,0.6-0.5,1.2c0.3,0.7,0.5,1.3,1.3,1.7c0.7,0.3,0.9,2.4,0.4,3c-0.5,0.7-0.9,1.4-1.5,2.1
				c-0.6,0.7-1.1,0.7-1.6-0.1c-0.7-1.1-1.2-2.3-1.8-3.5c-0.6-1.1-1-2.3-1.7-3.3c-0.2-0.3-0.9-0.6-1.3-0.6c-0.3,0-0.7,0.6-0.9,1
				C17.8,57.1,17.8,57.9,17.6,58.8z"/>
			<path class="st6" d="M34.4,62.6c-3,0.1-3.9-1-5.1-3.3c-0.4-0.8-0.7-1.7-0.9-2.5c-0.2-0.8,0.2-1.5,1-1.8c2.5-0.8,5-1.4,7.7-1.6
				c1.1-0.1,1.7,0.5,2,1.7c0.6,2.8-1.2,6-3.2,7C35.4,62.4,34.9,62.4,34.4,62.6z"/>
			<path class="st6" d="M50.9,58.1c-3,0.2-5.9-1.8-6.8-4.5c-0.3-1,0-1.8,0.9-2.2c1.5-0.7,3.1-1.2,4.7-1.7c0.9-0.3,1.9-0.4,2.9-0.6
				c0.9-0.1,1.5,0.3,1.9,1.1c1.1,2.5,0.7,5.2-1.2,6.6C52.6,57.4,51.7,57.7,50.9,58.1z"/>
			<path class="st7" d="M28.5,84.5c0.6,0.2,1.1,0.3,1.8,0.4c-0.2,1.3-0.4,2.7-0.7,4c-0.1,0.3-0.2,0.6-0.2,0.9
				c-0.2,1.4-0.1,1.3,1.2,1.7c1,0.2,1.5,0.9,1.7,1.8c0.2,0.9-0.4,2.2-1.1,2.6c-0.8,0.4-1.6,0.1-2.1-0.5c-0.8-0.9-1.6-1.3-2.7-0.7
				c-0.3,0.1-0.6,0.2-0.9,0.2c-0.5-0.1-1.2-0.1-1.4-0.4c-0.3-0.5-0.3-1.2-0.1-1.8c0.3-0.9,1.1-1.3,2-1.5c0.8-0.2,1.2-0.6,1.3-1.4
				C27.7,88.1,28.1,86.3,28.5,84.5z"/>
			<path class="st7" d="M61.9,80.7c0.7-0.4,1.2-0.7,1.9-1c0.7,1.1,1.4,2.3,2,3.5c0.6,1.2,1.3,1.8,2.6,1.9c0.6,0.1,1.2,0.2,1.7,0.5
				c0.7,0.3,1.1,0.9,0.9,1.7c-0.2,0.8-0.9,1.3-1.6,1.1c-1.4-0.4-2.1,0.2-2.8,1.3c-0.6,1-1.6,1.1-2.4,0.3c-1-0.9-1.1-2-0.2-2.9
				c1-1.1,1-1.1,0.3-2.3C63.4,83.4,62.7,82.1,61.9,80.7z"/>
		</g>
		<g>
			<g>
				<path class="st8" d="M35.2,52.2c1.5-0.1,2.5,0,4-0.2c0.8-0.1,1.7-0.2,2.4-0.5c4.5-2,9.1-3.5,13.9-4.4c0.4-0.1,1.2,0,1.3,0.2
					c0.2,0.7,0.5,1.6,0.3,2.2c-0.3,0.7-0.3,1.4-0.2,2.1c0.3,3-1,5.7-3.6,7.1c-3.4,1.8-7.2,0.5-9.2-1.9c-0.6-0.8-1.2-1.6-1.8-2.4
					c-0.2-0.2-0.5-0.4-0.8-0.5c-0.2,0.3-0.4,0.6-0.4,0.9c-0.3,1.5-0.4,3-0.8,4.5c-0.8,2.8-4.6,5.2-7.5,4.7c-1.8-0.3-3-1.4-4.1-2.7
					c-0.5-0.6-0.9-1.3-1.3-2c-0.5-0.7-0.7-1.6-1.6-2.1c-0.5-0.3-0.6-1.1-0.8-1.8c0-0.1,0.3-0.6,0.5-0.6c2.8-0.8,5.6-1.5,8.4-2.3
					c0.2-0.1,0.7-0.3,0.9-0.3C35,52.2,35.2,52.2,35.2,52.2z M35,53.5c-1.7,0.4-3.5,0.8-5.3,1.3c-1.4,0.4-1.8,1.2-1.3,2.6
					c0.5,1.3,1.1,2.5,1.8,3.7c1,1.7,3.9,1.9,5.3,1.2c2.3-1.1,4.1-4.5,3.3-7.4c-0.2-0.7-0.6-1.2-1.4-1.3C36.7,53.4,35.9,53.5,35,53.5
					z M51.6,49.2c-0.4,0.1-1.2,0.2-1.9,0.4c-1.5,0.5-3.1,0.9-4.5,1.6c-1.3,0.6-1.5,1.6-0.8,2.9c0.5,0.9,1.1,1.7,1.8,2.4
					c2,1.9,5.4,1.9,7.4,0.2c1.7-1.6,1.8-3.6,1.2-5.6C54.2,49.2,53.8,48.9,51.6,49.2z"/>
				<path d="M55.6,47.1c0.4-0.1,1.1,0,1.2,0.2c0.2,0.7,0.5,1.6,0.3,2.2c-0.3,0.7-0.3,1.4-0.2,2.1c0.3,3-1,5.7-3.6,7.1
					c-0.8,0.4-1.6,0.7-2.5,0.8c-2.6,0.3-5.2-0.8-6.8-2.6c-0.6-0.8-1.2-1.6-1.8-2.4c-0.2-0.2-0.5-0.4-0.8-0.5
					c-0.2,0.3-0.4,0.6-0.4,0.9c-0.3,1.5-0.4,3-0.8,4.5c-0.7,2.4-3.5,4.4-6.1,4.7c-0.5,0.1-1,0.1-1.5,0c-1.8-0.3-3-1.4-4.1-2.7
					c-0.5-0.6-0.9-1.3-1.3-2c-0.5-0.7-0.7-1.6-1.6-2.1c-0.5-0.3-0.6-1.1-0.8-1.8c0-0.1,0.3-0.6,0.5-0.6c2.8-0.8,5.6-1.5,8.4-2.3
					c0.2-0.1,0.7-0.3,0.9-0.3c0.2,0,0.4,0,0.4,0c1.5-0.1,2.5,0,4-0.2c0.2,0,0.4,0,0.6-0.1c0.6-0.1,1.3-0.2,1.8-0.5
					C46.1,49.5,50.7,48,55.6,47.1C55.5,47.1,55.6,47.1,55.6,47.1 M50.7,57.9c1.1-0.1,2.1-0.6,2.8-1.3c1.7-1.6,1.8-3.6,1.2-5.6
					c-0.5-1.8-1-2.1-3-1.8c-0.1,0-0.1,0-0.2,0c-0.4,0.1-1.2,0.2-1.9,0.4c-1.5,0.5-3.1,0.9-4.5,1.6c-1.3,0.6-1.5,1.6-0.8,2.9
					c0.5,0.9,1.1,1.7,1.8,2.4C47.4,57.6,49.1,58.1,50.7,57.9 M34.4,62.5c0.5-0.1,0.9-0.2,1.2-0.4c2.3-1.1,4.1-4.5,3.3-7.4
					c-0.2-0.7-0.6-1.2-1.4-1.3c-0.8-0.1-1.6,0-2.5,0c-1.7,0.4-3.5,0.8-5.3,1.3c-1.4,0.4-1.8,1.2-1.3,2.6c0.5,1.3,1.1,2.5,1.8,3.7
					C31.1,62.3,32.9,62.7,34.4,62.5 M55.5,45.9c-0.1,0-0.1,0-0.2,0c-4.6,0.9-9.3,2.3-14.2,4.5c-0.4,0.2-0.8,0.3-1.5,0.4
					c-0.2,0-0.4,0-0.6,0.1c-0.8,0.1-1.5,0.1-2.2,0.1c-0.5,0-1.1,0-1.8,0.1l0,0l0,0l-0.4,0c-0.3,0-0.6,0.2-0.9,0.3
					c-0.1,0-0.2,0.1-0.2,0.1l-0.3,0.1c-2.6,0.7-5.4,1.4-8.1,2.2c-0.5,0.2-1,0.6-1.2,1c-0.2,0.4-0.2,0.8-0.1,1.1
					c0,0.1,0.1,0.2,0.1,0.3c0.2,0.7,0.5,1.7,1.3,2.1c0.4,0.2,0.5,0.5,0.8,1.1c0.1,0.2,0.2,0.4,0.4,0.6c0.1,0.2,0.2,0.3,0.3,0.5
					c0.3,0.5,0.7,1.1,1.1,1.6c0.9,1.2,2.4,2.8,4.8,3.1c0.6,0.1,1.2,0.1,1.8,0c3.2-0.4,6.3-2.9,7.1-5.6c0.3-1,0.4-2,0.6-3
					c0-0.2,0.1-0.4,0.1-0.6c0,0.1,0.1,0.1,0.1,0.2c0.3,0.4,0.6,0.9,1,1.3c1.9,2.3,4.9,3.4,7.8,3.1c1-0.1,2-0.4,2.9-0.9
					c2.9-1.5,4.5-4.7,4.2-8.2c-0.1-0.7-0.1-1.1,0.1-1.6c0.4-0.9,0.1-2-0.2-3C57.5,45.7,55.8,45.9,55.5,45.9L55.5,45.9z M51.8,50.4
					l0.1,0c1-0.1,1.3-0.1,1.3,0c0,0,0.2,0.1,0.4,1c0.6,2,0.3,3.3-0.9,4.4c-0.5,0.5-1.3,0.8-2.2,0.9c-1.3,0.2-2.7-0.2-3.6-1.1
					c-0.6-0.6-1.2-1.3-1.6-2.1c-0.2-0.3-0.3-0.6-0.2-0.8c0.1-0.2,0.3-0.4,0.5-0.4c1.1-0.5,2.2-0.8,3.4-1.2c0.3-0.1,0.6-0.2,0.9-0.3
					c0.5-0.1,1-0.2,1.4-0.3C51.5,50.4,51.7,50.4,51.8,50.4L51.8,50.4z M34.2,61.4c-1.1,0.1-2.4-0.1-2.9-1c-0.7-1.2-1.3-2.3-1.7-3.5
					c-0.2-0.4-0.1-0.6-0.1-0.7c0-0.1,0.2-0.2,0.6-0.3c1.2-0.4,2.4-0.6,3.6-0.9c0.5-0.1,1-0.2,1.5-0.3c0.2,0,0.4,0,0.7,0
					c0.6,0,1.1,0,1.6,0c0.1,0,0.2,0,0.3,0.4c0.6,2.4-0.9,5.2-2.7,6.1C34.9,61.2,34.6,61.3,34.2,61.4L34.2,61.4z"/>
			</g>
		</g>
	</g>
</g>
</svg>
