<?xml version="1.0" encoding="utf-8"?>
<!-- Generator: Adobe Illustrator 24.1.2, SVG Export Plug-In . SVG Version: 6.00 Build 0)  -->
<svg version="1.1" xmlns="http://www.w3.org/2000/svg" xmlns:xlink="http://www.w3.org/1999/xlink" x="0px" y="0px"
	 viewBox="0 0 417 107" style="enable-background:new 0 0 417 107;" xml:space="preserve">
<style type="text/css">
	.st0{fill:#A2DEAF;}
	.st1{fill:#EAB052;}
	.st2{fill:#114E4E;}
	.st3{fill:#E17334;}
	.st4{fill-rule:evenodd;clip-rule:evenodd;fill:#A2DEAF;}
	.st5{fill-rule:evenodd;clip-rule:evenodd;fill:#114E4E;}
	.st6{fill-rule:evenodd;clip-rule:evenodd;fill:#FFFFFF;}
	.st7{fill-rule:evenodd;clip-rule:evenodd;fill:#E17334;}
	.st8{fill:#F2CEC4;}
	.st9{fill:#BD1010;}
	.st10{fill:#E95626;}
	.st11{fill:#FFFFFF;}
</style>
<g id="Capa_1">
	<desc>Created with Sketch.</desc>
</g>
<g id="Capa_2">
	<g>
		<g>
			<path class="st0" d="M172.5,23.6c0,3.5-2.2,7-6.6,10.5c-3.1,2.5-7.2,4.9-12.2,7.2c-0.1,0.1-2.3,0.9-6.6,2.6
				c-1.3,0.5-3.2,1.4-5.6,2.6c-1.3,0.7-2.4,1-3.3,1c-0.9,0-1.5-0.2-1.8-0.6c-0.2-0.3-0.3-1-0.3-2c0-2.1,0.6-5.5,1.7-10.1
				c1.1-4.6,1.7-7.8,1.7-9.7c0-1.1-0.1-2.1-0.4-3c0.3-0.5,0.7-0.7,1.4-0.7c0.3,0,0.7,0.1,1.1,0.2c0.3-0.6,0.6-1.6,0.9-3.1
				c0.2-1.7,0.4-2.8,0.6-3.3c0.4-1.1,1.1-1.6,2-1.6c0.3,0,0.5,0,0.9,0.1c0.4,0.4,0.6,1,0.6,1.9V16c0,0.6,0.1,1.1,0.2,1.5
				c3.3-2.1,5.5-3.4,6.8-3.8c0.9-0.3,2.8-0.4,5.7-0.4c3.5,0,6.2,0.4,8.1,1.3C170.8,16.3,172.5,19.2,172.5,23.6z M168.2,24.9
				c0-2.3-1.5-4-4.5-5.2c-2.1-0.9-4.1-1.3-6-1.3c-3.1,0-5.9,0.8-8.4,2.4c-0.8,0.5-1.7,1.1-2.6,1.6c-1,0.7-1.6,1.2-1.7,1.6
				c-0.8,2-1.6,4.7-2.3,7.9c-0.5,2.7-1.1,5.5-1.6,8.2c3.5-1.2,8.6-3.1,15.3-5.6C164.3,31.4,168.2,28.2,168.2,24.9z"/>
			<path class="st1" d="M169.7,34.1c0-1.5,0.9-2.7,2.1-2.7s2,1.1,2,2.7c0,1.5-0.8,2.7-2.1,2.7C170.5,36.8,169.7,35.7,169.7,34.1z"/>
			<path class="st0" d="M196.1,30.2c0,3.6-1,7.1-3.1,10.3c-2.3,3.6-5,5.4-8.2,5.4c-2.5,0-4.4-0.9-5.8-2.7c-1.3-1.7-2-4-2-6.9
				c0-1.1,0.3-3.1,1-5.8c0.8-3.3,1.8-6.1,2.9-8.2c1.4-2.8,3-4.2,4.5-4.2c3.1,0,5.6,1,7.5,2.9C195,23.2,196.1,26.2,196.1,30.2z
				 M190,31.9c0,0,0.1-0.5,0.3-1.6c0.2-1.1,0.3-2.1,0.3-2.9c0-3.5-1.4-5.1-4.1-4.8c-1.5,0.1-2.8,2.2-4.1,6.2
				c-1.1,3.3-1.6,5.9-1.6,7.6c0,1,0.1,2,0.4,2.8c0.5,1.6,1.4,2.4,2.6,2.4c1.8,0,3.3-1.4,4.7-4.1C189.5,35.2,190,33.3,190,31.9z"/>
			<path class="st1" d="M199,34.1c0-1.5,0.9-2.7,2.1-2.7s2,1.1,2,2.7c0,1.5-0.8,2.7-2.1,2.7C199.9,36.8,199,35.7,199,34.1z"/>
			<path class="st0" d="M232.8,20.1c0,0.9-0.7,3.4-2.1,7.4c-1.5,4.3-3,8-4.5,11.1c-1.9,3.8-3.4,5.7-4.5,5.7c-1,0-2-1.2-3.1-3.5
				c-0.8-1.7-1.6-3.9-2.5-6.8c-0.4-1.4-0.8-2.8-1.2-4.3c-1.1,2.9-2.3,7.4-3.7,13.4c-0.1,0.5-0.5,0.9-1.1,1.5
				c-0.6,0.5-1.1,0.8-1.4,0.8c-0.8,0-1.4-0.5-1.9-1.4c-0.3-0.7-0.5-1.5-0.5-2.3c0-1.2,0.2-2.3,0.5-3.3c0.8-2.5,2.2-6.1,4.2-10.6
				c1.2-2.7,2.3-4.8,3.4-6.2c0.1-0.2,0.5-0.3,1.1-0.4c0.8-0.1,1.3-0.2,1.4-0.3c2,4,3.2,9.5,3.8,16.6c0.3,0.3,0.6,0.7,1.1,1.3
				c1.1-2.3,2.4-5.8,4-10.5c1-3,1.6-4.8,1.9-5.6c1.4-3.2,2.7-4.8,4-4.8c0.5,0,0.9,0.3,1,0.9C232.8,19,232.8,19.4,232.8,20.1z"/>
			<path class="st1" d="M237.6,34.1c0-1.5,0.9-2.7,2.1-2.7c1.2,0,2,1.1,2,2.7c0,1.5-0.8,2.7-2.1,2.7
				C238.4,36.8,237.6,35.7,237.6,34.1z"/>
			<path class="st0" d="M242.4,19.3c0-0.4,0-0.9-0.1-1.6c-0.2-2.6-0.2-4.4,0-5.2c0-0.3,0.1-0.6,0.1-0.9c0-0.3,0.1-0.5,0.3-0.5
				c0.1,0,0.1,0,0.2,0.1c0.1,0.1,0.4,0.2,0.9,0.4c0.3,0.1,0.5,0.4,0.7,0.7c0.2,0.4,0.2,1.5,0.1,3.3c-0.1,0.9-0.3,2-0.5,3.2
				c-0.3,1.6-0.7,2.4-1.1,2.4C242.6,21.2,242.4,20.5,242.4,19.3z"/>
			<path class="st0" d="M271.7,19c0.1,0.1,0.1,0.3,0.1,0.5c0,0.7-0.6,1.4-1.9,2.1c-1,0.6-1.7,1-2.2,1c-0.9,0.1-2.6,0.2-5,0.3
				c-1.8,0-3.3,0.2-4.4,0.6c0,0.4,0,0.8-0.1,1.2c0,0.4-0.1,0.8-0.3,1.4c-0.1,0.3-0.5,2.5-1.3,6.7c-0.8,4.6-1.2,7.4-1.2,8.5v4.7
				c-0.2,0.6-1,0.9-2.4,0.9c-1,0-1.5-1-1.5-3.1c0-0.9,0.2-2.5,0.6-4.7c0.3-1.8,0.6-3.2,0.8-4.1c0.1-0.5,0.4-2.1,0.7-4.6
				c0.4-2.7,0.5-4.5,0.5-5.4c0-0.3-0.1-0.5-0.4-0.8l-4.9,1.5c-0.7,0.2-1.1-1-1.1-3.5c0-1,0.2-1.6,0.6-1.9c0.3-0.2,0.8-0.3,1.4-0.3
				c0.1,0,0.3,0,0.6,0.1c0.3,0.1,0.5,0.1,0.7,0.1l16.3-3.1c1.4-0.1,2.4,0,3,0.4C270.8,17.6,271.2,18.1,271.7,19z"/>
			<path class="st0" d="M317.8,36.4c0,0.3-0.1,1-0.2,2.1c-0.2,1.2-0.4,2.1-0.5,2.6c-1.4,1.6-4.6,3.4-9.7,5.3
				c-5.5,2.1-10.4,3.1-14.7,3.1c-3.4,0-5.5-0.6-6.5-1.9c-0.9-1.3-1.4-3.9-1.4-8.1c0-1.3,0-1.9,0-1.9c0.1-0.6,0.3-1.5,0.7-2.8
				c0.8-1.9,2-4.9,3.6-9.1c0.2-0.5,0.4-1.6,0.6-3.2c0.2-1.5,0.5-2.5,0.8-3.2c0.3-0.5,1.5-1.1,3.8-1.8c4.7-1.3,8.5-2,11.5-2
				c5.1,0,7.7,1.3,7.7,3.9c0,0.7-0.3,1.8-1,3.2c-0.7,1.5-1.3,2.6-2,3.2c2.6,0.6,4.5,2,5.8,4.1C317.3,31.9,317.8,34,317.8,36.4z
				 M313.8,37.2c0-0.7-0.6-1.7-1.8-2.8c-1-0.9-1.7-1.5-2.2-1.8c-1.3-0.6-3.8-0.9-7.4-0.9c-1.8,0-3.2,0.2-4.3,0.5
				c-1,0.3-2,0.6-2.9,0.9c-0.8,0.2-1.6,0.3-2.4,0.5c-0.9,0.2-1.6,0.5-2,0.9c-0.6,0.5-1.2,1.5-1.6,2.9c-0.4,1.3-0.6,2.3-0.5,3
				c3.3-0.9,5.9-1.4,8-1.4c1.8,0,2.7,0.4,2.7,1.1c0,0.5-0.5,1.1-1.6,2c-0.6,0.4-1.2,0.8-1.7,1.2C307.9,41.4,313.8,39.4,313.8,37.2z
				 M307.5,21.7l-0.4-0.5h-3.8c-1.3,0-3.2,0.3-5.7,1c-3.5,1-5.3,2.2-5.3,3.6v0.9c0.1-0.1,0.3-0.1,0.8,0c1,0,2.1,0,3.3,0
				c2-0.1,4.1-0.7,6.3-1.7C304.9,24,306.5,22.9,307.5,21.7z"/>
			<path class="st1" d="M319.2,34.1c0-1.5,0.9-2.7,2.1-2.7c1.2,0,2,1.1,2,2.7c0,1.5-0.8,2.7-2.1,2.7C320,36.8,319.2,35.7,319.2,34.1
				z"/>
			<path class="st0" d="M348.1,29.9c-2.2,0.7-5.3,1.4-9.2,2c-3,0.5-5,1-5.9,1.6c-1.4,0.9-2,2.5-1.9,4.9c0.1,0.1,0.3,0.1,0.6,0.1
				c0.3,0,0.7,0,1.3-0.1c0.6-0.1,0.9-0.1,1.1-0.1c0.2,0,1.4-0.3,3.6-1c2.2-0.7,3.4-1,3.6-1c0.7,0,1.1,0.1,1.4,0.2
				c0.5,0.3,1,0.9,1.5,1.9c-0.8,1.8-2.7,3.5-6,5.3c-3.1,1.7-5.7,2.5-7.7,2.5c-1.4,0-2.4-0.3-3.1-0.9c-0.8-0.7-1.1-2-1.1-3.7
				c0-2.3,0.8-6.4,2.5-12.3c1.6-5.6,2.6-8.8,3.2-9.4c0.6-0.7,2.4-1,5.4-1c1.4,0,2.4,0.1,3.1,0.4c1,0.4,1.9,1.2,2.7,2.4L343,23
				c0,0.1-0.9,0.1-2.6,0c-2-0.1-3.5,0.1-4.5,0.4c-1.6,0.6-2.4,1.8-2.4,3.5v1.2c1.1,0,3.1-0.1,6.2-0.3c3.1-0.3,5.1-0.4,6-0.4
				c0.7,0,1.3,0.2,2,0.5c0.7,0.3,1,0.7,1,1.2C348.6,29.3,348.4,29.6,348.1,29.9z"/>
			<path class="st2" d="M170.7,22.9c0,3.5-2.2,7-6.6,10.5c-3.1,2.5-7.2,4.9-12.2,7.2c-0.1,0.1-2.3,0.9-6.6,2.6
				c-1.3,0.5-3.2,1.4-5.6,2.6c-1.3,0.7-2.4,1-3.3,1c-0.9,0-1.5-0.2-1.8-0.6c-0.2-0.3-0.3-1-0.3-2c0-2.1,0.6-5.5,1.7-10.1
				c1.1-4.6,1.7-7.8,1.7-9.7c0-1.1-0.1-2.1-0.4-3c0.3-0.5,0.7-0.7,1.4-0.7c0.3,0,0.7,0.1,1.1,0.2c0.3-0.6,0.6-1.6,0.9-3.1
				c0.2-1.7,0.4-2.8,0.6-3.3c0.4-1.1,1.1-1.6,2-1.6c0.3,0,0.5,0,0.9,0.1c0.4,0.4,0.6,1,0.6,1.9v0.3c0,0.6,0.1,1.1,0.2,1.5
				c3.3-2.1,5.5-3.4,6.8-3.8c0.9-0.3,2.8-0.4,5.7-0.4c3.5,0,6.2,0.4,8.1,1.3C169,15.6,170.7,18.5,170.7,22.9z M166.4,24.1
				c0-2.3-1.5-4-4.5-5.2c-2.1-0.9-4.1-1.3-6-1.3c-3.1,0-5.9,0.8-8.4,2.4c-0.8,0.5-1.7,1.1-2.6,1.6c-1,0.7-1.6,1.2-1.7,1.6
				c-0.8,2-1.6,4.7-2.3,7.9c-0.5,2.7-1.1,5.5-1.6,8.2c3.5-1.2,8.6-3.1,15.3-5.6C162.5,30.7,166.4,27.4,166.4,24.1z"/>
			<path class="st3" d="M167.9,33.4c0-1.5,0.9-2.7,2.1-2.7c1.2,0,2,1.1,2,2.7c0,1.5-0.8,2.7-2.1,2.7
				C168.8,36.1,167.9,34.9,167.9,33.4z"/>
			<path class="st2" d="M194.3,29.4c0,3.6-1,7.1-3.1,10.3c-2.3,3.6-5,5.4-8.2,5.4c-2.5,0-4.4-0.9-5.8-2.7c-1.3-1.7-2-4-2-6.9
				c0-1.1,0.3-3.1,1-5.8c0.8-3.3,1.8-6.1,2.9-8.2c1.4-2.8,3-4.2,4.5-4.2c3.1,0,5.6,1,7.5,2.9C193.2,22.4,194.3,25.5,194.3,29.4z
				 M188.2,31.1c0,0,0.1-0.5,0.3-1.6c0.2-1.1,0.3-2.1,0.3-2.9c0-3.5-1.4-5.1-4.1-4.8c-1.5,0.1-2.8,2.2-4.1,6.2
				c-1.1,3.3-1.6,5.9-1.6,7.6c0,1,0.1,2,0.4,2.8c0.5,1.6,1.4,2.4,2.6,2.4c1.8,0,3.3-1.4,4.7-4.1C187.7,34.4,188.2,32.6,188.2,31.1z"
				/>
			<path class="st3" d="M197.3,33.4c0-1.5,0.9-2.7,2.1-2.7c1.2,0,2,1.1,2,2.7c0,1.5-0.8,2.7-2.1,2.7
				C198.1,36.1,197.2,34.9,197.3,33.4z"/>
			<path class="st2" d="M231,19.4c0,0.9-0.7,3.4-2.1,7.4c-1.5,4.3-3,8-4.5,11.1c-1.9,3.8-3.4,5.7-4.5,5.7c-1,0-2-1.2-3.1-3.5
				c-0.8-1.7-1.6-3.9-2.5-6.8c-0.4-1.4-0.8-2.8-1.2-4.3c-1.1,2.9-2.3,7.4-3.7,13.4c-0.1,0.5-0.5,0.9-1.1,1.5
				c-0.6,0.5-1.1,0.8-1.4,0.8c-0.8,0-1.4-0.5-1.9-1.4c-0.3-0.7-0.5-1.5-0.5-2.3c0-1.2,0.2-2.3,0.5-3.3c0.8-2.5,2.2-6.1,4.2-10.6
				c1.2-2.7,2.3-4.8,3.3-6.2c0.1-0.2,0.5-0.3,1.1-0.4c0.8-0.1,1.3-0.2,1.4-0.3c2,4,3.2,9.5,3.8,16.6c0.3,0.3,0.6,0.7,1.1,1.3
				c1.1-2.3,2.4-5.8,4-10.5c1-3,1.6-4.8,1.9-5.6c1.4-3.2,2.7-4.8,4-4.8c0.5,0,0.9,0.3,1,0.9C231,18.3,231,18.7,231,19.4z"/>
			<path class="st3" d="M235.8,33.4c0-1.5,0.9-2.7,2.1-2.7s2,1.1,2,2.7c0,1.5-0.8,2.7-2.1,2.7C236.6,36.1,235.8,34.9,235.8,33.4z"/>
			<path class="st2" d="M240.6,18.5c0-0.4,0-0.9-0.1-1.6c-0.2-2.6-0.2-4.4,0-5.2c0-0.3,0.1-0.6,0.1-0.9s0.1-0.5,0.3-0.5
				c0.1,0,0.1,0,0.2,0.1c0.1,0.1,0.4,0.2,0.9,0.4c0.3,0.1,0.5,0.4,0.7,0.7c0.2,0.4,0.2,1.5,0.1,3.3c-0.1,0.9-0.3,2-0.5,3.2
				c-0.3,1.6-0.7,2.4-1.1,2.4C240.8,20.5,240.6,19.8,240.6,18.5z"/>
			<path class="st2" d="M269.9,18.2c0.1,0.1,0.1,0.3,0.1,0.5c0,0.7-0.6,1.4-1.9,2.1c-1,0.6-1.7,1-2.2,1c-0.9,0.1-2.6,0.2-5,0.3
				c-1.8,0-3.3,0.2-4.4,0.6c0,0.4,0,0.8-0.1,1.2c0,0.4-0.1,0.8-0.3,1.4c-0.1,0.3-0.5,2.5-1.3,6.7c-0.8,4.6-1.2,7.4-1.2,8.5v4.7
				c-0.2,0.6-1,0.9-2.4,0.9c-1,0-1.5-1-1.5-3.1c0-0.9,0.2-2.5,0.6-4.7c0.3-1.8,0.6-3.2,0.8-4.1c0.1-0.5,0.4-2.1,0.7-4.6
				c0.4-2.7,0.5-4.5,0.5-5.4c0-0.3-0.1-0.5-0.4-0.8l-4.9,1.5c-0.7,0.2-1.1-1-1.1-3.5c0-1,0.2-1.6,0.6-1.9c0.3-0.2,0.8-0.3,1.4-0.3
				c0.1,0,0.3,0,0.6,0.1c0.3,0.1,0.5,0.1,0.7,0.1l16.3-3.1c1.4-0.1,2.4,0,3,0.4C269,16.8,269.4,17.4,269.9,18.2z"/>
			<path class="st2" d="M316,35.7c0,0.3-0.1,1-0.2,2.1c-0.2,1.2-0.4,2.1-0.5,2.6c-1.4,1.6-4.6,3.4-9.7,5.3
				c-5.5,2.1-10.4,3.1-14.7,3.1c-3.4,0-5.5-0.6-6.5-1.9c-0.9-1.3-1.4-3.9-1.4-8.1c0-1.3,0-1.9,0-1.9c0.1-0.6,0.3-1.5,0.7-2.8
				c0.8-1.9,2-4.9,3.6-9.1c0.2-0.5,0.4-1.6,0.6-3.2c0.2-1.5,0.5-2.5,0.8-3.2c0.3-0.5,1.5-1.1,3.8-1.8c4.7-1.3,8.5-2,11.5-2
				c5.1,0,7.7,1.3,7.7,3.9c0,0.7-0.3,1.8-1,3.2c-0.7,1.5-1.3,2.6-2,3.2c2.6,0.6,4.5,2,5.8,4.1C315.5,31.1,316,33.2,316,35.7z
				 M312,36.4c0-0.7-0.6-1.7-1.8-2.8c-1-0.9-1.7-1.5-2.2-1.8c-1.3-0.6-3.8-0.9-7.4-0.9c-1.8,0-3.2,0.2-4.3,0.5c-1,0.3-2,0.6-2.9,0.9
				c-0.8,0.2-1.6,0.3-2.4,0.5c-0.9,0.2-1.6,0.5-2,0.9c-0.6,0.5-1.2,1.5-1.6,2.9c-0.4,1.3-0.6,2.3-0.5,3c3.3-0.9,5.9-1.4,8-1.4
				c1.8,0,2.7,0.4,2.7,1.1c0,0.5-0.5,1.1-1.6,2c-0.6,0.4-1.2,0.8-1.7,1.2C306.1,40.7,312,38.6,312,36.4z M305.7,20.9l-0.4-0.5h-3.8
				c-1.3,0-3.2,0.3-5.7,1c-3.5,1-5.3,2.2-5.3,3.6V26c0.1-0.1,0.3-0.1,0.8,0c1,0,2.1,0,3.3,0c2-0.1,4.1-0.7,6.3-1.7
				C303.1,23.3,304.7,22.2,305.7,20.9z"/>
			<path class="st3" d="M317.4,33.4c0-1.5,0.9-2.7,2.1-2.7c1.2,0,2,1.1,2,2.7c0,1.5-0.8,2.7-2.1,2.7
				C318.2,36.1,317.4,34.9,317.4,33.4z"/>
			<path class="st2" d="M346.3,29.2c-2.2,0.7-5.3,1.4-9.2,2c-3,0.5-5,1-5.9,1.6c-1.4,0.9-2,2.5-1.9,4.9c0.1,0.1,0.3,0.1,0.6,0.1
				c0.3,0,0.7,0,1.3-0.1c0.6-0.1,0.9-0.1,1.1-0.1c0.2,0,1.4-0.3,3.6-1c2.2-0.7,3.4-1,3.6-1c0.7,0,1.1,0.1,1.4,0.2
				c0.5,0.3,1,0.9,1.5,1.9c-0.8,1.8-2.7,3.5-6,5.3c-3.1,1.7-5.7,2.5-7.7,2.5c-1.4,0-2.4-0.3-3.1-0.9c-0.8-0.7-1.1-2-1.1-3.7
				c0-2.3,0.8-6.4,2.5-12.3c1.6-5.6,2.6-8.8,3.2-9.4c0.6-0.7,2.4-1,5.4-1c1.4,0,2.4,0.1,3.1,0.4c1,0.4,1.9,1.2,2.7,2.4l-0.3,1.4
				c0,0.1-0.9,0.1-2.6,0c-2-0.1-3.5,0.1-4.5,0.4c-1.6,0.6-2.4,1.8-2.4,3.5v1.2c1.1,0,3.1-0.1,6.2-0.3c3.1-0.3,5.1-0.4,6-0.4
				c0.7,0,1.3,0.2,2,0.5c0.7,0.3,1,0.7,1,1.2C346.8,28.6,346.6,28.9,346.3,29.2z"/>
		</g>
		<g>
			<path class="st0" d="M166.4,59.5c0,1.7-0.8,4.9-2.3,9.6c-1.7,5.5-3.7,10-5.8,13.6c-2.7,4.6-5.4,6.9-8.1,6.9
				c-1.8,0-3.3-1.9-4.3-5.9c-0.7-2.7-1.1-5-1.1-7c0-0.3,0.2-2.9,0.6-7.9c0.5-5.5,0.8-9.6,0.9-12.1c0.1,0,0.3-0.1,0.7-0.3
				c0.4-0.2,0.7-0.3,1.1-0.3c1.4,0,2.6,0.5,3.5,1.6c0.9,1,1.3,2.4,1.3,4.1c0,0.4-0.6,3.6-1.7,9.5c-1.2,6-1.7,9.2-1.7,9.5
				c0,0.9,0.1,1.4,0.2,1.7c0.2,0.4,0.6,0.6,1.2,0.6c1.7,0,3.5-2.3,5.4-6.8c1.4-3.2,2.8-7.5,4.3-13c0.7-2.7,1.4-5.4,2.1-8h2
				C165.8,57,166.4,58.4,166.4,59.5z"/>
			<path class="st1" d="M166.9,78.1c0-1.5,0.9-2.7,2.1-2.7c1.2,0,2,1.1,2,2.7c0,1.5-0.8,2.7-2.1,2.7
				C167.7,80.8,166.8,79.7,166.9,78.1z"/>
			<path class="st0" d="M200.7,64.1c0,0.9-0.7,3.4-2.1,7.4c-1.5,4.3-3,8-4.5,11.1c-1.9,3.8-3.4,5.7-4.5,5.7c-1,0-2-1.2-3.1-3.5
				c-0.8-1.7-1.6-3.9-2.5-6.8c-0.4-1.4-0.8-2.8-1.2-4.3c-1.1,2.9-2.3,7.4-3.7,13.4c-0.1,0.5-0.5,0.9-1.1,1.5
				c-0.6,0.5-1.1,0.8-1.4,0.8c-0.8,0-1.4-0.5-1.9-1.4c-0.3-0.7-0.5-1.5-0.5-2.3c0-1.2,0.2-2.3,0.5-3.3c0.8-2.5,2.2-6.1,4.2-10.6
				c1.2-2.7,2.3-4.8,3.3-6.2c0.1-0.2,0.5-0.3,1.1-0.4c0.8-0.1,1.3-0.2,1.4-0.3c2,4,3.2,9.5,3.8,16.6c0.3,0.3,0.6,0.7,1.1,1.3
				c1.1-2.3,2.4-5.8,4-10.5c1-3,1.6-4.8,1.9-5.6c1.4-3.2,2.7-4.8,4-4.8c0.5,0,0.9,0.3,1,0.9C200.6,63,200.7,63.4,200.7,64.1z"/>
			<path class="st1" d="M202,78.1c0-1.5,0.9-2.7,2.1-2.7c1.2,0,2,1.1,2,2.7c0,1.5-0.8,2.7-2.1,2.7C202.8,80.8,201.9,79.7,202,78.1z"
				/>
			<path class="st0" d="M238.5,71.3c0,3.9-3.4,7.8-10.2,11.7c-2.1,1.2-5.5,2.7-10.2,4.6c-1.1,0.4-2.6,1.1-4.5,2.1
				c-1,0.5-1.9,0.8-2.7,0.8c-0.7,0-1.2-0.2-1.4-0.6c-0.2-0.3-0.2-0.8-0.2-1.6c0-1.7,0.4-4.4,1.3-8.1c0.9-3.7,1.3-6.2,1.3-7.8
				c0-0.9-0.1-1.7-0.3-2.4c0.2-0.4,0.6-0.6,1.1-0.6c0.3,0,0.6,0.1,0.9,0.2c0.3-0.5,0.5-1.3,0.7-2.5c0.2-1.3,0.4-2.2,0.5-2.6
				c0.3-0.8,0.8-1.2,1.6-1.2c0.2,0,0.4,0,0.7,0.1c0.3,0.3,0.5,0.8,0.5,1.5v0.2c0,0.5,0,0.9,0.1,1.2c2.6-1.7,4.4-2.7,5.4-3
				c0.7-0.2,2.2-0.3,4.5-0.3c2.8,0,5,0.3,6.5,1C237.1,65.4,238.5,67.8,238.5,71.3z M235,72.3c0-1.8-1.2-3.2-3.6-4.2
				c-1.7-0.7-3.3-1-4.9-1c-2.5,0-4.7,0.7-6.7,2c-0.7,0.4-1.4,0.9-2,1.3c-0.8,0.5-1.3,0.9-1.4,1.2c-0.7,1.7-1.3,3.8-1.8,6.4
				c-0.4,2.2-0.9,4.3-1.3,6.5c2.8-1,6.8-2.5,12.2-4.5C231.9,77.5,235,74.9,235,72.3z"/>
			<path class="st1" d="M239.9,78.1c0-1.5,0.9-2.7,2.1-2.7s2,1.1,2,2.7c0,1.5-0.8,2.7-2.1,2.7C240.7,80.8,239.9,79.7,239.9,78.1z"/>
			<path class="st0" d="M268.8,73.9c-2.2,0.7-5.3,1.4-9.2,2c-3,0.5-5,1-5.9,1.6c-1.4,0.9-2,2.5-1.9,4.9c0.1,0.1,0.3,0.1,0.6,0.1
				c0.3,0,0.7,0,1.3-0.1c0.6-0.1,0.9-0.1,1.1-0.1c0.2,0,1.4-0.3,3.6-1c2.2-0.7,3.4-1,3.6-1c0.7,0,1.1,0.1,1.4,0.2
				c0.5,0.3,1,0.9,1.5,1.9c-0.8,1.8-2.7,3.5-6,5.3c-3.1,1.7-5.7,2.5-7.7,2.5c-1.4,0-2.4-0.3-3.1-0.9c-0.8-0.7-1.1-2-1.1-3.7
				c0-2.3,0.8-6.4,2.5-12.3c1.6-5.6,2.6-8.8,3.2-9.4c0.6-0.7,2.4-1,5.4-1c1.4,0,2.4,0.1,3.1,0.4c1,0.4,1.9,1.2,2.7,2.4l-0.3,1.4
				c0,0.1-0.9,0.1-2.6,0c-2-0.1-3.5,0.1-4.5,0.4c-1.6,0.6-2.4,1.8-2.4,3.5v1.2c1.1,0,3.1-0.1,6.2-0.3c3.1-0.3,5.1-0.4,6-0.4
				c0.7,0,1.3,0.2,2,0.5c0.7,0.3,1,0.7,1,1.2C269.3,73.3,269.1,73.6,268.8,73.9z"/>
			<path class="st1" d="M268.7,78.1c0-1.5,0.9-2.7,2.1-2.7c1.2,0,2,1.1,2,2.7c0,1.5-0.8,2.7-2.1,2.7
				C269.5,80.8,268.7,79.7,268.7,78.1z"/>
			<path class="st0" d="M296.4,73.2c0,1.8-0.5,2.8-1.6,3c-0.4,0.1-1.7,0.4-3.8,0.8c-1.5,0.3-3.1,0.7-4.7,1.2
				c-0.6,0.2-1.3,0.4-1.9,0.6c-0.8,0.3-1.5,0.6-1.9,0.9c-0.6,0.4-1.1,1.7-1.5,3.7c-0.3,1.8-0.7,3.5-1,5.3c-0.5,1.8-1,2.7-1.7,2.7
				c-0.6,0-1.1-0.4-1.5-1.3c-0.3-0.7-0.4-1.3-0.4-1.9c0-1.3,0.4-2.9,1.3-4.9c0.9-2,1.3-3.2,1.3-3.7c0-0.3-0.2-0.7-0.6-1.3
				c-0.4-0.6-0.6-1.2-0.6-1.7c0-0.8,0.5-1.3,1.4-1.5c0.5-0.1,1-0.1,1.5-0.2c0.9-2.7,1.8-5.4,2.7-8c0.6-1.8,1.4-3,2.1-3.5
				c0.8-0.5,2.3-0.8,4.5-0.8c0.1,0,0.6,0,1.6-0.1c1-0.1,1.9-0.1,2.6-0.1c2.5,0,3.7,0.6,3.7,1.7c0,1-0.4,1.8-1.1,2.5
				c-0.7,0.7-1.4,1.1-2,1.1l-7,0.5c-1.1,0.1-2,0.9-2.6,2.3c-0.5,1.2-0.7,2.1-0.6,2.7l9.5-1.4C295.6,71.8,296.4,72.3,296.4,73.2z"/>
			<path class="st1" d="M297.8,78.1c0-1.5,0.9-2.7,2.1-2.7s2,1.1,2,2.7c0,1.5-0.8,2.7-2.1,2.7C298.6,80.8,297.8,79.7,297.8,78.1z"/>
			<path class="st0" d="M313.7,62.8c0.1,2.7-0.2,5.7-1,8.8c-0.8,2.8-1.6,5.6-2.4,8.4c-0.9,3.2-1.5,6.1-1.8,8.4
				c-0.7,0.6-1.2,0.9-1.6,0.9c-1.2,0-1.8-1.1-1.8-3.2c0-2.6,0.6-5.7,1.8-9.3c2.3-7,3.8-11.6,4.4-13.9c0.4-0.4,0.9-0.6,1.3-0.6
				C313.1,62.3,313.4,62.4,313.7,62.8z"/>
			<path class="st1" d="M317.2,78.1c0-1.5,0.9-2.7,2.1-2.7c1.2,0,2,1.1,2,2.7c0,1.5-0.8,2.7-2.1,2.7
				C318.1,80.8,317.2,79.7,317.2,78.1z"/>
			<path class="st0" d="M351,64.1c0,0.9-0.7,3.4-2.1,7.4c-1.5,4.3-3,8-4.5,11.1c-1.9,3.8-3.4,5.7-4.5,5.7c-1,0-2-1.2-3.1-3.5
				c-0.8-1.7-1.6-3.9-2.5-6.8c-0.4-1.4-0.8-2.8-1.2-4.3c-1.1,2.9-2.3,7.4-3.7,13.4c-0.1,0.5-0.5,0.9-1.1,1.5
				c-0.6,0.5-1.1,0.8-1.4,0.8c-0.8,0-1.4-0.5-1.9-1.4c-0.3-0.7-0.5-1.5-0.5-2.3c0-1.2,0.2-2.3,0.5-3.3c0.8-2.5,2.2-6.1,4.2-10.6
				c1.2-2.7,2.3-4.8,3.3-6.2c0.1-0.2,0.5-0.3,1.1-0.4c0.8-0.1,1.3-0.2,1.4-0.3c2,4,3.2,9.5,3.8,16.6c0.3,0.3,0.6,0.7,1.1,1.3
				c1.1-2.3,2.4-5.8,4-10.5c1-3,1.6-4.8,1.9-5.6c1.4-3.2,2.7-4.8,4-4.8c0.5,0,0.9,0.3,1,0.9C351,63,351,63.4,351,64.1z"/>
			<path class="st1" d="M352.3,78.1c0-1.5,0.9-2.7,2.1-2.7c1.2,0,2,1.1,2,2.7c0,1.5-0.8,2.7-2.1,2.7
				C353.1,80.8,352.3,79.7,352.3,78.1z"/>
			<path class="st0" d="M381.2,73.9c-2.2,0.7-5.3,1.4-9.2,2c-3,0.5-5,1-5.9,1.6c-1.4,0.9-2,2.5-1.9,4.9c0.1,0.1,0.3,0.1,0.6,0.1
				c0.3,0,0.7,0,1.3-0.1c0.6-0.1,0.9-0.1,1.1-0.1c0.2,0,1.4-0.3,3.6-1c2.2-0.7,3.4-1,3.6-1c0.7,0,1.1,0.1,1.4,0.2
				c0.5,0.3,1,0.9,1.5,1.9c-0.8,1.8-2.7,3.5-6,5.3c-3.1,1.7-5.7,2.5-7.7,2.5c-1.4,0-2.4-0.3-3.1-0.9c-0.8-0.7-1.1-2-1.1-3.7
				c0-2.3,0.8-6.4,2.5-12.3c1.6-5.6,2.6-8.8,3.2-9.4c0.6-0.7,2.4-1,5.4-1c1.4,0,2.4,0.1,3.1,0.4c1,0.4,1.9,1.2,2.7,2.4l-0.3,1.4
				c0,0.1-0.9,0.1-2.6,0c-2-0.1-3.5,0.1-4.5,0.4c-1.6,0.6-2.4,1.8-2.4,3.5v1.2c1.1,0,3.1-0.1,6.2-0.3c3.1-0.3,5.1-0.4,6-0.4
				c0.7,0,1.3,0.2,2,0.5c0.7,0.3,1,0.7,1,1.2C381.7,73.3,381.5,73.6,381.2,73.9z"/>
			<path class="st1" d="M381.1,78.1c0-1.5,0.9-2.7,2.1-2.7c1.2,0,2,1.1,2,2.7c0,1.5-0.8,2.7-2.1,2.7
				C381.9,80.8,381.1,79.7,381.1,78.1z"/>
			<path class="st0" d="M417.6,71.3c0,3.9-3.4,7.8-10.2,11.7c-2.1,1.2-5.5,2.7-10.2,4.6c-1.1,0.4-2.6,1.1-4.5,2.1
				c-1,0.5-1.9,0.8-2.7,0.8c-0.7,0-1.2-0.2-1.4-0.6c-0.2-0.3-0.2-0.8-0.2-1.6c0-1.7,0.4-4.4,1.3-8.1c0.9-3.7,1.3-6.2,1.3-7.8
				c0-0.9-0.1-1.7-0.3-2.4c0.2-0.4,0.6-0.6,1.1-0.6c0.3,0,0.6,0.1,0.9,0.2c0.3-0.5,0.5-1.3,0.7-2.5c0.2-1.3,0.4-2.2,0.5-2.6
				c0.3-0.8,0.8-1.2,1.6-1.2c0.2,0,0.4,0,0.7,0.1c0.3,0.3,0.5,0.8,0.5,1.5v0.2c0,0.5,0,0.9,0.1,1.2c2.6-1.7,4.4-2.7,5.4-3
				c0.7-0.2,2.2-0.3,4.5-0.3c2.8,0,5,0.3,6.5,1C416.2,65.4,417.6,67.8,417.6,71.3z M414.2,72.3c0-1.8-1.2-3.2-3.6-4.2
				c-1.7-0.7-3.3-1-4.9-1c-2.5,0-4.7,0.7-6.7,2c-0.7,0.4-1.4,0.9-2.1,1.3c-0.8,0.5-1.3,0.9-1.4,1.2c-0.7,1.7-1.3,3.8-1.8,6.4
				c-0.4,2.2-0.9,4.3-1.3,6.5c2.8-1,6.8-2.5,12.2-4.5C411,77.5,414.2,74.9,414.2,72.3z"/>
			<path class="st2" d="M164.6,58.8c0,1.7-0.8,4.9-2.3,9.6c-1.7,5.5-3.7,10-5.8,13.6c-2.7,4.6-5.4,6.9-8.1,6.9
				c-1.8,0-3.3-1.9-4.3-5.9c-0.7-2.7-1.1-5-1.1-7c0-0.3,0.2-2.9,0.6-7.9c0.5-5.5,0.8-9.6,0.9-12.1c0.1,0,0.3-0.1,0.7-0.3
				c0.4-0.2,0.7-0.3,1.1-0.3c1.4,0,2.6,0.5,3.5,1.6c0.9,1,1.3,2.4,1.3,4.1c0,0.4-0.6,3.6-1.7,9.5c-1.2,6-1.7,9.2-1.7,9.5
				c0,0.9,0.1,1.4,0.2,1.7c0.2,0.4,0.6,0.6,1.2,0.6c1.7,0,3.5-2.3,5.4-6.8c1.4-3.2,2.8-7.5,4.3-13c0.7-2.7,1.4-5.4,2.1-8h2
				C164,56.3,164.6,57.7,164.6,58.8z"/>
			<path class="st3" d="M165.1,77.4c0-1.5,0.9-2.7,2.1-2.7s2,1.1,2,2.7c0,1.5-0.8,2.7-2.1,2.7C165.9,80.1,165.1,78.9,165.1,77.4z"/>
			<path class="st2" d="M198.9,63.3c0,0.9-0.7,3.4-2.1,7.4c-1.5,4.3-3,8-4.5,11.1c-1.9,3.8-3.4,5.7-4.5,5.7c-1,0-2-1.2-3.1-3.5
				c-0.8-1.7-1.6-3.9-2.5-6.8c-0.4-1.4-0.8-2.8-1.2-4.3c-1.1,2.9-2.3,7.4-3.7,13.4c-0.1,0.5-0.5,0.9-1.1,1.5
				c-0.6,0.5-1.1,0.8-1.4,0.8c-0.8,0-1.4-0.5-1.9-1.4c-0.3-0.7-0.5-1.5-0.5-2.3c0-1.2,0.2-2.3,0.5-3.3c0.8-2.5,2.2-6.1,4.2-10.6
				c1.2-2.7,2.3-4.8,3.4-6.2c0.1-0.2,0.5-0.3,1.1-0.4c0.8-0.1,1.3-0.2,1.4-0.3c2,4,3.2,9.5,3.8,16.6c0.3,0.3,0.6,0.7,1.1,1.3
				c1.1-2.3,2.4-5.8,4-10.5c1-3,1.6-4.8,1.9-5.6c1.4-3.2,2.7-4.8,4-4.8c0.5,0,0.9,0.3,1,0.9C198.9,62.3,198.9,62.7,198.9,63.3z"/>
			<path class="st3" d="M200.2,77.4c0-1.5,0.9-2.7,2.1-2.7s2,1.1,2,2.7c0,1.5-0.8,2.7-2.1,2.7C201,80.1,200.1,78.9,200.2,77.4z"/>
			<path class="st2" d="M236.7,70.6c0,3.9-3.4,7.8-10.2,11.7c-2.1,1.2-5.5,2.7-10.2,4.6c-1.1,0.4-2.6,1.1-4.5,2.1
				c-1,0.5-1.9,0.8-2.7,0.8c-0.7,0-1.2-0.2-1.4-0.6c-0.2-0.3-0.2-0.8-0.2-1.6c0-1.7,0.4-4.4,1.3-8.1c0.9-3.7,1.3-6.2,1.3-7.8
				c0-0.9-0.1-1.7-0.3-2.4c0.2-0.4,0.6-0.6,1.1-0.6c0.3,0,0.6,0.1,0.9,0.2c0.3-0.5,0.5-1.3,0.7-2.5c0.2-1.3,0.4-2.2,0.5-2.6
				c0.3-0.8,0.8-1.2,1.6-1.2c0.2,0,0.4,0,0.7,0.1c0.3,0.3,0.5,0.8,0.5,1.5v0.2c0,0.5,0,0.9,0.1,1.2c2.6-1.7,4.4-2.7,5.4-3
				c0.7-0.2,2.2-0.3,4.5-0.3c2.8,0,5,0.3,6.5,1C235.3,64.7,236.7,67.1,236.7,70.6z M233.3,71.6c0-1.8-1.2-3.2-3.6-4.2
				c-1.7-0.7-3.3-1-4.9-1c-2.5,0-4.7,0.7-6.7,2c-0.7,0.4-1.4,0.9-2,1.3c-0.8,0.5-1.3,0.9-1.4,1.2c-0.7,1.7-1.3,3.8-1.8,6.4
				c-0.4,2.2-0.9,4.3-1.3,6.5c2.8-1,6.8-2.5,12.2-4.5C230.1,76.8,233.3,74.2,233.3,71.6z"/>
			<path class="st3" d="M238.1,77.4c0-1.5,0.9-2.7,2.1-2.7s2,1.1,2,2.7c0,1.5-0.8,2.7-2.1,2.7C239,80.1,238.1,78.9,238.1,77.4z"/>
			<path class="st2" d="M267.1,73.2c-2.2,0.7-5.3,1.4-9.2,2c-3,0.5-5,1-5.9,1.6c-1.4,0.9-2,2.5-1.9,4.9c0.1,0.1,0.3,0.1,0.6,0.1
				c0.3,0,0.7,0,1.3-0.1c0.6-0.1,0.9-0.1,1.1-0.1c0.2,0,1.4-0.3,3.6-1c2.2-0.7,3.4-1,3.6-1c0.7,0,1.1,0.1,1.4,0.2
				c0.5,0.3,1,0.9,1.5,1.9c-0.8,1.8-2.7,3.5-6,5.3c-3.1,1.7-5.7,2.5-7.7,2.5c-1.4,0-2.4-0.3-3.1-0.9c-0.8-0.7-1.1-2-1.1-3.7
				c0-2.3,0.8-6.4,2.5-12.3c1.6-5.6,2.6-8.8,3.2-9.4c0.6-0.7,2.4-1,5.4-1c1.4,0,2.4,0.1,3.1,0.4c1,0.4,1.9,1.2,2.7,2.4l-0.3,1.4
				c0,0.1-0.9,0.1-2.6,0c-2-0.1-3.5,0.1-4.5,0.4c-1.6,0.6-2.4,1.8-2.4,3.5v1.2c1.1,0,3.1-0.1,6.2-0.3c3.1-0.3,5.1-0.4,6-0.4
				c0.7,0,1.3,0.2,2,0.5c0.7,0.3,1,0.7,1,1.2C267.5,72.6,267.4,72.9,267.1,73.2z"/>
			<path class="st3" d="M266.9,77.4c0-1.5,0.9-2.7,2.1-2.7s2,1.1,2,2.7c0,1.5-0.8,2.7-2.1,2.7C267.7,80.1,266.9,78.9,266.9,77.4z"/>
			<path class="st2" d="M294.6,72.5c0,1.8-0.5,2.8-1.6,3c-0.4,0.1-1.7,0.4-3.8,0.8c-1.5,0.3-3.1,0.7-4.7,1.2
				c-0.6,0.2-1.3,0.4-1.9,0.6c-0.8,0.3-1.5,0.6-1.9,0.9c-0.6,0.4-1.1,1.7-1.5,3.7c-0.3,1.8-0.7,3.5-1,5.3c-0.5,1.8-1,2.7-1.7,2.7
				c-0.6,0-1.1-0.4-1.5-1.3c-0.3-0.7-0.4-1.3-0.4-1.9c0-1.3,0.4-2.9,1.3-4.9c0.9-2,1.3-3.2,1.3-3.7c0-0.3-0.2-0.7-0.6-1.3
				c-0.4-0.6-0.6-1.2-0.6-1.7c0-0.8,0.5-1.3,1.4-1.5c0.5-0.1,1-0.1,1.5-0.2c0.9-2.7,1.8-5.4,2.7-8c0.6-1.8,1.4-3,2.1-3.5
				c0.8-0.5,2.3-0.8,4.5-0.8c0.1,0,0.6,0,1.6-0.1c1-0.1,1.9-0.1,2.6-0.1c2.5,0,3.7,0.6,3.7,1.7c0,1-0.4,1.8-1.1,2.5
				c-0.7,0.7-1.4,1.1-2,1.1l-7,0.5c-1.1,0.1-2,0.9-2.6,2.3c-0.5,1.2-0.7,2.1-0.6,2.7l9.5-1.4C293.8,71.1,294.6,71.6,294.6,72.5z"/>
			<path class="st3" d="M296,77.4c0-1.5,0.9-2.7,2.1-2.7c1.2,0,2,1.1,2,2.7c0,1.5-0.8,2.7-2.1,2.7C296.9,80.1,296,78.9,296,77.4z"/>
			<path class="st2" d="M311.9,62.1c0.1,2.7-0.2,5.7-1,8.8c-0.8,2.8-1.6,5.6-2.4,8.4c-0.9,3.2-1.5,6.1-1.8,8.4
				c-0.7,0.6-1.2,0.9-1.6,0.9c-1.2,0-1.8-1.1-1.8-3.2c0-2.6,0.6-5.7,1.8-9.3c2.3-7,3.8-11.6,4.4-13.9c0.4-0.4,0.9-0.6,1.3-0.6
				C311.3,61.5,311.6,61.7,311.9,62.1z"/>
			<path class="st3" d="M315.5,77.4c0-1.5,0.9-2.7,2.1-2.7c1.2,0,2,1.1,2,2.7c0,1.5-0.8,2.7-2.1,2.7
				C316.3,80.1,315.4,78.9,315.5,77.4z"/>
			<path class="st2" d="M349.2,63.3c0,0.9-0.7,3.4-2.1,7.4c-1.5,4.3-3,8-4.5,11.1c-1.9,3.8-3.4,5.7-4.5,5.7c-1,0-2-1.2-3.1-3.5
				c-0.8-1.7-1.6-3.9-2.5-6.8c-0.4-1.4-0.8-2.8-1.2-4.3c-1.1,2.9-2.3,7.4-3.7,13.4c-0.1,0.5-0.5,0.9-1.1,1.5
				c-0.6,0.5-1.1,0.8-1.4,0.8c-0.8,0-1.4-0.5-1.9-1.4c-0.3-0.7-0.5-1.5-0.5-2.3c0-1.2,0.2-2.3,0.5-3.3c0.8-2.5,2.2-6.1,4.2-10.6
				c1.2-2.7,2.3-4.8,3.4-6.2c0.1-0.2,0.5-0.3,1.1-0.4c0.8-0.1,1.3-0.2,1.4-0.3c2,4,3.2,9.5,3.8,16.6c0.3,0.3,0.6,0.7,1.1,1.3
				c1.1-2.3,2.4-5.8,4-10.5c1-3,1.6-4.8,1.9-5.6c1.4-3.2,2.7-4.8,4-4.8c0.5,0,0.9,0.3,1,0.9C349.2,62.3,349.2,62.7,349.2,63.3z"/>
			<path class="st3" d="M350.5,77.4c0-1.5,0.9-2.7,2.1-2.7s2,1.1,2,2.7c0,1.5-0.8,2.7-2.1,2.7C351.4,80.1,350.5,78.9,350.5,77.4z"/>
			<path class="st2" d="M379.4,73.2c-2.2,0.7-5.3,1.4-9.2,2c-3,0.5-5,1-5.9,1.6c-1.4,0.9-2,2.5-1.9,4.9c0.1,0.1,0.3,0.1,0.6,0.1
				c0.3,0,0.7,0,1.3-0.1c0.6-0.1,0.9-0.1,1.1-0.1c0.2,0,1.4-0.3,3.6-1c2.2-0.7,3.4-1,3.6-1c0.7,0,1.1,0.1,1.4,0.2
				c0.5,0.3,1,0.9,1.5,1.9c-0.8,1.8-2.7,3.5-6,5.3c-3.1,1.7-5.7,2.5-7.7,2.5c-1.4,0-2.4-0.3-3.1-0.9c-0.8-0.7-1.1-2-1.1-3.7
				c0-2.3,0.8-6.4,2.5-12.3c1.6-5.6,2.6-8.8,3.2-9.4c0.6-0.7,2.4-1,5.4-1c1.4,0,2.4,0.1,3.1,0.4c1,0.4,1.9,1.2,2.7,2.4l-0.3,1.4
				c0,0.1-0.9,0.1-2.6,0c-2-0.1-3.5,0.1-4.5,0.4c-1.6,0.6-2.4,1.8-2.4,3.5v1.2c1.1,0,3.1-0.1,6.2-0.3c3.1-0.3,5.1-0.4,6-0.4
				c0.7,0,1.3,0.2,2,0.5c0.7,0.3,1,0.7,1,1.2C379.9,72.6,379.7,72.9,379.4,73.2z"/>
			<path class="st3" d="M379.3,77.4c0-1.5,0.9-2.7,2.1-2.7s2,1.1,2,2.7c0,1.5-0.8,2.7-2.1,2.7C380.1,80.1,379.3,78.9,379.3,77.4z"/>
			<path class="st2" d="M415.8,70.6c0,3.9-3.4,7.8-10.2,11.7c-2.1,1.2-5.5,2.7-10.2,4.6c-1.1,0.4-2.6,1.1-4.5,2.1
				c-1,0.5-1.9,0.8-2.7,0.8c-0.7,0-1.2-0.2-1.4-0.6c-0.2-0.3-0.2-0.8-0.2-1.6c0-1.7,0.4-4.4,1.3-8.1c0.9-3.7,1.3-6.2,1.3-7.8
				c0-0.9-0.1-1.7-0.3-2.4c0.2-0.4,0.6-0.6,1.1-0.6c0.3,0,0.6,0.1,0.9,0.2c0.3-0.5,0.5-1.3,0.7-2.5c0.2-1.3,0.4-2.2,0.5-2.6
				c0.3-0.8,0.8-1.2,1.6-1.2c0.2,0,0.4,0,0.7,0.1c0.3,0.3,0.5,0.8,0.5,1.5v0.2c0,0.5,0,0.9,0.1,1.2c2.6-1.7,4.4-2.7,5.4-3
				c0.7-0.2,2.2-0.3,4.5-0.3c2.8,0,5,0.3,6.5,1C414.5,64.7,415.8,67.1,415.8,70.6z M412.4,71.6c0-1.8-1.2-3.2-3.6-4.2
				c-1.7-0.7-3.3-1-4.9-1c-2.5,0-4.7,0.7-6.7,2c-0.7,0.4-1.4,0.9-2.1,1.3c-0.8,0.5-1.3,0.9-1.4,1.2c-0.7,1.7-1.3,3.8-1.8,6.4
				c-0.4,2.2-0.9,4.3-1.3,6.5c2.8-1,6.8-2.5,12.2-4.5C409.3,76.8,412.4,74.2,412.4,71.6z"/>
		</g>
	</g>
	<g>
		<g id="Card_1_">
			
				<g id="Group_3_" transform="translate(63.191223, 54.437060) rotate(-10.000000) translate(-63.191223, -54.437060) translate(7.318166, 11.294573)">
				<path id="Path_6_" class="st4" d="M106.7-0.8c3.1,0,5.7,1.1,7.9,3.2c2.2,2.2,3.2,4.8,3.2,7.9l0,66.7c0,3.1-1.1,5.7-3.2,7.9
					c-2.2,2.2-4.8,3.2-7.9,3.2l-96.3,0c-3.1,0-5.7-1.1-7.9-3.2s-3.2-4.8-3.2-7.9l0-66.7c0-3.1,1.1-5.7,3.2-7.9s4.8-3.2,7.9-3.2
					L106.7-0.8z"/>
				<path id="Path-Copy_3_" class="st5" d="M105.5-2.5c3.1,0,5.7,1.1,7.9,3.2c2.2,2.2,3.2,4.8,3.2,7.9l0,66.7c0,3.1-1.1,5.7-3.2,7.9
					c-2.2,2.2-4.8,3.2-7.9,3.2l-96.3,0c-3.1,0-5.7-1.1-7.9-3.2c-2.2-2.2-3.2-4.8-3.2-7.9l0-66.7c0-3.1,1.1-5.7,3.2-7.9
					s4.8-3.2,7.9-3.2L105.5-2.5z"/>
				<path id="Path_5_" class="st6" d="M109.2,75.3l0-66.7c0-1.1-0.3-2-1-2.7c-0.7-0.7-1.6-1-2.7-1l-96.3,0c-1.1,0-2,0.3-2.7,1
					s-1,1.6-1,2.7l0,66.7c0,1.1,0.3,2,1,2.7c0.7,0.7,1.6,1,2.7,1l96.3,0c1.1,0,2-0.3,2.7-1C108.9,77.2,109.2,76.3,109.2,75.3z"/>
				<path id="Combined-Shape_6_" class="st7" d="M74.9,56.7c-0.8,0-1.4-0.3-2-0.8c-0.5-0.5-0.8-1.2-0.8-2v-1.9c0-0.8,0.3-1.4,0.8-2
					c0.5-0.5,1.2-0.8,2-0.8l24.1,0c0.8,0,1.4,0.3,2,0.8c0.5,0.5,0.8,1.2,0.8,2V54c0,0.8-0.3,1.4-0.8,2c-0.5,0.5-1.2,0.8-2,0.8
					L74.9,56.7z M74.9,41.9c-0.8,0-1.4-0.3-2-0.8c-0.5-0.5-0.8-1.2-0.8-2v-1.9c0-0.8,0.3-1.4,0.8-2c0.5-0.5,1.2-0.8,2-0.8l24.1,0
					c0.8,0,1.4,0.3,2,0.8c0.5,0.5,0.8,1.2,0.8,2v1.9c0,0.8-0.3,1.4-0.8,2c-0.5,0.5-1.2,0.8-2,0.8L74.9,41.9z M74.9,27.1
					c-0.8,0-1.4-0.3-2-0.8c-0.5-0.5-0.8-1.2-0.8-2v-1.9c0-0.8,0.3-1.4,0.8-2c0.5-0.5,1.2-0.8,2-0.8l24.1,0c0.8,0,1.4,0.3,2,0.8
					c0.5,0.5,0.8,1.2,0.8,2v1.9c0,0.8-0.3,1.4-0.8,2c-0.5,0.5-1.2,0.8-2,0.8L74.9,27.1z"/>
			</g>
		</g>
		<g>
			<g>
				<path d="M55.3,69.8c-3.7,3.7-7.8,5-12.6,2.7c-0.3,0.6-0.6,1.2-0.9,1.8c-1.5,2.6-3.7,4-6.6,4.4c-0.9,0.1-1.4,0.3-1.5,1.4
					c-0.1,1.5-0.5,3-0.7,4.6c0.5,0.2,0.9,0.4,1.3,0.6c1.2,0.7,1.9,1.8,1.8,3.2c0,1.4-0.7,2.6-1.9,3.3c-1,0.6-2.6,0.6-3.7-0.6
					c-0.5-0.5-0.9-0.7-1.7-0.4c-2.6,0.9-4.7-0.6-4.5-3.1c0.1-1.4,1-2.4,2.4-2.8c1.2-0.3,1.6-1.1,1.8-2.3c0.1-1.1,0.4-2.3,0.7-3.3
					c0.3-1,0.2-1.5-0.6-2.1c-2.8-2-3.7-4.9-3.6-8.2c0.1-3.7,1.2-7.3,2.8-10.6c0.5-1.1,1-2.3,1.6-3.6c-0.5,0.5-0.8,1-1.2,1.4
					c-0.8,0.9-2.3,1-3.2,0.2c-1.5-1.4-2.1-3.2-2.8-5.1c-0.3-0.8-0.7-1.6-1.1-2.4c-0.2,0-0.2,0-0.4,0.1c-0.2,1.2-0.3,2.3-0.5,3.5
					c-0.1,0.4-0.4,0.8-0.6,1.2c-0.4-0.2-0.9-0.4-1.2-0.7c-1.5-1.8-1.9-4.1-1.8-6.3c0.1-2.3,0.5-4.5,0.9-6.8c0.3-1.6,1.4-1.9,2.5-0.7
					c1.2,1.3,2.4,2.8,3.6,4.3c0.3-2.6,1-4.9,3.2-6.4c2-1.4,4.2-2.7,6.9-1.5c0.2-2.5,0.5-4.8,0.7-7.1c0.1-0.9,0.4-1.5,1.2-1.8
					c3-1.2,5.8-2.8,9.1-2.8c0.8,0,1.4-0.3,2-0.9c1.3-1.4,3.5-1.6,5-0.3c0.8,0.7,1.5,1.6,2.2,2.4c0.8,0.9,1.6,1.7,2.9,1.7
					c0.1,0,0.2,0.1,0.4,0.2c0,0,0,0.1,0.1,0.3c-0.4,0.1-0.8,0.2-1.4,0.3c0.5,0.3,0.9,0.6,1.3,0.8c0.2,0.1,0.3,0.3,0.5,0.5
					c-0.2,0.2-0.3,0.5-0.6,0.5c-0.3,0.1-0.7,0-1.1,0c-0.4,0-0.9,0-1.3-0.2c-0.3-0.2-0.6-0.6-0.8-0.9c-0.7-1.2-1.1-2.6-1.9-3.7
					c-0.5-0.7-1.4-1.2-2.2-1.5c-0.4-0.2-0.8,0.2-1.2,0.4c-0.1,0.1-0.2,0.3,0,0.3c0.7,0.4,1.3,0.5,1.6,1.1c0.7,1,1,2.2,1.5,3.4
					c0.5,1.2,1,2.4,1.6,3.7c1.7,0,3.3-0.1,4.9,0c2.4,0.1,4.2,1.4,5.4,3.4c0.1,0.1,0.2,0.3,0.4,0.6c0.2-0.9,0.4-1.6,0.6-2.3
					c0.3-0.9,0.5-1.9,0.9-2.7c0.7-1.5,1.9-1.7,2.9-0.3c0.9,1.4,1.7,2.9,2.4,4.4c1.1,2.3,1.7,4.8,1.3,7.4c-0.1,0.5-0.2,1.1-0.4,1.6
					c-0.1,0.3-0.4,0.7-0.6,0.7c-0.3,0-0.6-0.3-0.8-0.6c-0.5-0.9-1-1.9-1.7-2.9c0,0.4,0,0.8,0,1.1c0,1.9,0.2,3.8,0.1,5.7
					c-0.2,2.4-1.5,3.2-3.8,2.6c-1.1-0.3-2.1-0.9-3.4-1.5c0.3,0.5,0.5,1,0.8,1.3c3.5,3.4,6.5,7.1,8.2,11.8c1.2,3.2,0.9,6.4-0.8,9.4
					c-0.3,0.6-0.3,1,0,1.5c0.8,1.3,1.6,2.7,2.5,4c0.3,0.4,0.8,0.6,1.3,0.8c0.6,0.2,1.3,0.3,2,0.6c1.5,0.6,2.2,1.7,1.9,3.1
					c-0.3,1.4-1.5,2.5-3,2.4c-0.9-0.1-1.3,0.2-1.8,0.9c-1,1.4-2.3,1.7-3.6,1.1c-1.6-0.8-2.6-2.4-2.2-4c0.1-0.5,0.5-1,0.9-1.4
					c0.4-0.4,0.4-0.7,0.1-1.2c-0.8-1.3-1.6-2.5-2.3-3.8c-0.3-0.6-0.7-1-1.4-1.1c-3.1-0.5-5.7-1.9-8-3.8C55.7,70.2,55.5,70,55.3,69.8
					z M60.2,48.1c-0.4,0.4-0.7,0.7-0.9,0.9c-1.9,2.4-4.5,2.9-7.4,2.4c-2.6-0.5-4.5-2.2-5.9-4.4c-0.3-0.5-0.9-0.9-1.4-1.4
					c-0.2,0.6-0.5,1.2-0.6,1.8c-0.3,2-0.4,4.1-1.9,5.8c-1.8,2.1-4,3.8-7,3.2c-1.4-0.3-2.7-1.2-3.9-1.8c0-0.1,0,0.1,0,0.3
					c2.2,6.6,5.4,12.6,11.7,16.2c1.9,1.1,4,1.5,6.1,1c2.2-0.5,3.9-1.8,5.4-3.4c2.6-2.7,4.2-6,4.9-9.7C60,55.5,60.3,51.9,60.2,48.1z
					 M58.8,38.5c-0.2-0.7-0.4-1.2-0.5-1.8c-0.2-0.5-0.4-1.1-0.6-1.6c-0.5-1.6-2.1-2.5-3.7-1.9c-0.8,0.3-1.5,0.6-2.2,1.1
					c-2,1.2-3.9,2.5-5.9,3.8c-1.3,0.8-2.7,1.2-4.2,0.8c-2.1-0.5-4.3-1.2-6.4-1.8c-1.3-0.3-2.7-0.7-4-0.8c-1.4-0.1-2.1,0.6-2.1,1.9
					c0,2.3,0.1,4.6,0.1,6.8c0,0.3,0.1,0.6,0.2,0.9c0.5-0.2,0.9-0.3,1.4-0.4c3.3-1,6.8-1.7,10.3-1.8c1.7,0,3.3-0.4,4.8-1.1
					c2.3-1,4.7-1.9,7.1-2.7C54.8,39.4,56.8,39,58.8,38.5z M30,56.2c-0.1,0.2-0.3,0.5-0.4,0.8c-1.1,2.6-2.2,5.1-2.8,7.9
					c-0.4,2.2-0.8,4.3-0.5,6.5C27,75.6,31.6,79,36.4,77c2.1-0.9,3.6-2.3,4.7-4.2c0.4-0.7,0.4-1-0.3-1.5c-2.6-1.9-4.9-4.1-6.5-6.9
					C32.8,61.8,31.5,59,30,56.2z M56,69.1c2.5,1.7,5.1,3.5,8.2,3.9c1.9,0.3,3.3-0.4,4.2-2.2c1.3-2.5,1.6-5.1,0.8-7.7
					c-1.3-4.5-4.1-8.1-7.4-11.3c-0.1-0.1-0.2,0-0.3,0C60.9,60.9,60.3,62.9,56,69.1z M52.2,32.5c-0.2-0.3-0.3-0.6-0.4-0.9
					c-0.8-2-1.6-4-2.5-5.9c-0.1-0.3-0.6-0.6-0.9-0.6c-3.9-0.1-7.7,0.5-11.3,2.2c-0.9,0.4-1.3,1.1-1.4,2.1c-0.2,1.9-0.5,3.8-0.7,5.7
					c0,0.3,0.3,0.8,0.5,0.9c2.1,0.6,4.2,1.3,6.3,1.7c0.8,0.2,1.9,0.1,2.7-0.3C47.1,35.8,49.6,34.1,52.2,32.5z M58.2,33
					c0.6,1.5,1.1,3,1.6,4.5c0.1,0.3,0.3,0.7,0.4,0.7c0.8,0.1,1,0.6,1,1.3c0,0.6-0.1,1.2-0.2,1.8c0,0.3-0.2,0.7-0.2,1
					c0.1,1.5,0.4,2.9,0.5,4.4c0,0.2,0,0.4,0.1,0.5c1,0.7,2,1.6,3.2,2c1.8,0.7,2.5,0.2,2.6-1.7c0.1-2.1-0.1-4.3-0.1-6.4
					c0-0.6,0.4-1.1,0.7-1.7c0.6,0.3,1.3,0.5,1.8,0.9c0.4,0.4,0.7,1,1,1.5c0.8-2.5-1.7-9.5-4-10.9c-0.2,0.7-0.5,1.4-0.7,2.1
					c-0.3,1.2-0.6,2.5-1.1,3.6c-0.1,0.4-0.7,0.8-1.1,0.9c-0.3,0-0.8-0.4-1.1-0.8c-0.3-0.4-0.4-0.9-0.7-1.3
					C61.2,33.9,59.9,33,58.2,33z M18.9,50.8c0.2-0.9,0.3-1.8,0.6-2.6c0.1-0.4,0.6-1,0.9-1c0.4-0.1,1.1,0.3,1.3,0.6
					c0.7,1.1,1.2,2.4,1.8,3.6c0.6,1.2,1.2,2.5,1.9,3.7c0.5,0.9,1.1,0.9,1.7,0.1c0.6-0.7,1.1-1.5,1.6-2.2c0.5-0.7,0.3-2.9-0.5-3.2
					c-0.9-0.4-1.1-1.1-1.4-1.8c-0.3-0.6-0.2-1.1,0.5-1.3c0.7-0.1,0.6-0.5,0.6-1.1c-0.1-1.1-0.2-2.2-0.3-3.3c0-1.5,0-2.9,0-4.4
					c-1.9,1.5-2.5,3-2.7,5.8c0,0.5-0.4,1-0.6,1.5c-0.6-0.2-1.2-0.4-1.6-0.8c-0.7-0.8-1.3-1.7-1.9-2.5c-0.6-0.7-1.2-1.4-1.8-2.1
					c-0.1,0-0.2,0.1-0.3,0.1C18,43.5,17.4,47.2,18.9,50.8z M36.9,54.9c0.5-0.2,1.1-0.2,1.5-0.5c2.1-1.1,4.1-4.5,3.5-7.5
					c-0.3-1.2-0.9-1.9-2.1-1.8c-2.8,0.1-5.5,0.8-8.2,1.7c-0.9,0.3-1.3,1.1-1.1,2c0.2,0.9,0.5,1.9,0.9,2.7
					C32.7,53.9,33.7,55.1,36.9,54.9z M54.6,50.1c0.9-0.4,1.8-0.7,2.6-1.3c2-1.5,2.4-4.4,1.3-7.1c-0.4-0.9-1-1.3-2-1.2
					c-1,0.2-2.1,0.3-3.1,0.6c-1.7,0.5-3.4,1.1-5.1,1.8c-0.9,0.4-1.2,1.3-0.9,2.3C48.3,48.3,51.4,50.3,54.6,50.1z M30.6,78.4
					c-0.5,2-0.9,3.9-1.3,5.8c-0.2,0.8-0.5,1.3-1.4,1.5c-0.9,0.2-1.8,0.6-2.1,1.6c-0.2,0.6-0.1,1.4,0.1,1.9c0.2,0.3,1,0.4,1.5,0.5
					c0.3,0,0.7-0.1,1-0.2c1.2-0.6,2.1-0.2,2.9,0.8c0.5,0.7,1.3,1,2.2,0.5c0.8-0.4,1.3-1.8,1.2-2.8c-0.2-1-0.8-1.7-1.8-2
					c-1.4-0.4-1.4-0.4-1.2-1.8c0-0.3,0.1-0.7,0.2-1c0.2-1.4,0.5-2.9,0.7-4.3C31.8,78.7,31.3,78.5,30.6,78.4z M66.3,74.3
					c0.9,1.5,1.7,2.9,2.5,4.3c0.8,1.3,0.8,1.3-0.3,2.5c-1,1-0.9,2.2,0.2,3.1c0.9,0.8,1.9,0.8,2.6-0.3c0.7-1.2,1.5-1.8,3-1.4
					c0.7,0.2,1.5-0.3,1.7-1.2c0.2-0.9-0.2-1.5-1-1.8c-0.6-0.3-1.2-0.4-1.9-0.5c-1.4-0.1-2.2-0.8-2.8-2.1c-0.6-1.3-1.4-2.5-2.1-3.7
					C67.6,73.6,67.1,73.9,66.3,74.3z"/>
				<path class="st8" d="M60.2,48.1c0.1,3.8-0.2,7.4-0.8,10.9c-0.6,3.8-2.2,7-4.9,9.7c-1.5,1.6-3.2,2.9-5.4,3.4
					c-2.2,0.5-4.2,0.1-6.1-1c-6.3-3.7-9.5-9.6-11.7-16.2c-0.1-0.2-0.1-0.4,0-0.3c1.3,0.6,2.5,1.5,3.9,1.8c3,0.6,5.2-1.1,7-3.2
					c1.4-1.6,1.6-3.7,1.9-5.8c0.1-0.6,0.4-1.2,0.6-1.8c0.5,0.5,1,0.8,1.4,1.4c1.4,2.2,3.3,3.9,5.9,4.4c2.8,0.5,5.4,0,7.4-2.4
					C59.5,48.8,59.8,48.5,60.2,48.1z"/>
				<path class="st8" d="M58.8,38.5c-2,0.5-3.9,0.9-5.8,1.5c-2.4,0.8-4.8,1.7-7.1,2.7c-1.6,0.7-3.1,1-4.8,1.1
					c-3.5,0.1-6.9,0.8-10.3,1.8c-0.4,0.1-0.8,0.2-1.4,0.4c-0.1-0.4-0.2-0.6-0.2-0.9c-0.1-2.3-0.2-4.6-0.1-6.8c0-1.4,0.7-2,2.1-1.9
					c1.3,0.1,2.7,0.5,4,0.8c2.1,0.6,4.3,1.2,6.4,1.8c1.5,0.4,2.9,0,4.2-0.8c1.9-1.3,3.9-2.5,5.9-3.8c0.7-0.4,1.4-0.8,2.2-1.1
					c1.6-0.6,3.2,0.3,3.7,1.9c0.2,0.6,0.4,1.1,0.6,1.6C58.4,37.3,58.6,37.8,58.8,38.5z"/>
				<path class="st8" d="M30,56.2c1.4,2.8,2.7,5.6,4.3,8.3c1.6,2.8,3.9,5,6.5,6.9c0.6,0.5,0.7,0.8,0.3,1.5c-1.1,1.9-2.6,3.3-4.7,4.2
					c-4.8,2.1-9.4-1.4-10.1-5.6c-0.3-2.2,0.1-4.3,0.5-6.5c0.5-2.8,1.6-5.3,2.8-7.9C29.7,56.7,29.9,56.4,30,56.2z"/>
				<path class="st8" d="M56,69.1c4.3-6.2,4.9-8.2,5.6-17.3c0.1,0,0.2,0,0.3,0c3.3,3.2,6,6.8,7.4,11.3c0.8,2.7,0.5,5.2-0.8,7.7
					c-0.9,1.8-2.3,2.4-4.2,2.2C61.1,72.6,58.5,70.9,56,69.1z"/>
				<path class="st9" d="M52.2,32.5c-2.5,1.6-5,3.3-7.7,4.8c-0.7,0.4-1.8,0.5-2.7,0.3c-2.1-0.4-4.2-1.1-6.3-1.7
					C35.3,35.8,35,35.3,35,35c0.2-1.9,0.5-3.8,0.7-5.7c0.1-1,0.5-1.6,1.4-2.1c3.6-1.7,7.4-2.3,11.3-2.2c0.3,0,0.7,0.3,0.9,0.6
					c0.9,2,1.6,4,2.5,5.9C51.8,31.9,52,32.2,52.2,32.5z"/>
				<path class="st8" d="M58.2,33c1.7,0,3,0.9,3.9,2.4c0.3,0.4,0.4,0.9,0.7,1.3c0.3,0.3,0.7,0.8,1.1,0.8c0.4,0,0.9-0.5,1.1-0.9
					c0.4-1.2,0.7-2.4,1.1-3.6c0.2-0.7,0.4-1.4,0.7-2.1c2.3,1.4,4.8,8.4,4,10.9c-0.4-0.6-0.6-1.2-1-1.5c-0.5-0.4-1.2-0.6-1.8-0.9
					c-0.2,0.6-0.7,1.1-0.7,1.7c0,2.1,0.2,4.3,0.1,6.4c-0.1,2-0.7,2.4-2.6,1.7c-1.1-0.4-2.1-1.3-3.2-2c-0.1-0.1-0.1-0.3-0.1-0.5
					c-0.2-1.5-0.4-2.9-0.5-4.4c0-0.3,0.2-0.6,0.2-1c0.1-0.6,0.2-1.2,0.2-1.8c0-0.6-0.2-1.2-1-1.3c-0.2,0-0.3-0.5-0.4-0.7
					C59.3,36,58.8,34.5,58.2,33z"/>
				<path class="st8" d="M18.9,50.8c-1.6-3.6-0.9-7.3-0.1-10.9c0.1,0,0.2-0.1,0.3-0.1c0.6,0.7,1.2,1.4,1.8,2.1
					c0.7,0.8,1.2,1.8,1.9,2.5c0.4,0.4,1.1,0.5,1.6,0.8c0.2-0.5,0.5-1,0.6-1.5c0.1-2.8,0.8-4.3,2.7-5.8c0,1.5,0,3,0,4.4
					c0,1.1,0.1,2.2,0.3,3.3c0.1,0.5,0.1,0.9-0.6,1.1c-0.7,0.2-0.8,0.7-0.5,1.3c0.3,0.7,0.5,1.4,1.4,1.8c0.8,0.3,1,2.5,0.5,3.2
					c-0.5,0.7-1,1.5-1.6,2.2C26.5,56,26,56,25.5,55.1c-0.7-1.2-1.3-2.5-1.9-3.7c-0.6-1.2-1.1-2.4-1.8-3.6c-0.2-0.4-0.9-0.7-1.3-0.6
					c-0.4,0-0.8,0.6-0.9,1C19.2,49.1,19.1,50,18.9,50.8z"/>
				<path class="st10" d="M36.9,54.9c-3.2,0.2-4.2-1-5.4-3.5c-0.4-0.8-0.7-1.8-0.9-2.7c-0.2-0.9,0.2-1.7,1.1-2
					c2.7-0.9,5.4-1.5,8.2-1.7c1.2-0.1,1.8,0.6,2.1,1.8c0.7,3-1.3,6.4-3.5,7.5C37.9,54.7,37.4,54.8,36.9,54.9z"/>
				<path class="st10" d="M54.6,50.1c-3.2,0.2-6.3-1.9-7.2-4.8c-0.3-1,0-1.9,0.9-2.3c1.6-0.7,3.4-1.3,5.1-1.8c1-0.3,2.1-0.4,3.1-0.6
					c1-0.1,1.6,0.3,2,1.2c1.2,2.6,0.7,5.6-1.3,7.1C56.4,49.4,55.5,49.7,54.6,50.1z"/>
				<path class="st11" d="M30.6,78.4c0.7,0.2,1.2,0.3,1.9,0.5c-0.2,1.4-0.5,2.9-0.7,4.3c-0.1,0.3-0.2,0.7-0.2,1
					c-0.2,1.4-0.2,1.4,1.2,1.8c1,0.3,1.7,0.9,1.8,2c0.2,1-0.4,2.4-1.2,2.8c-0.9,0.4-1.7,0.1-2.2-0.5c-0.8-1-1.7-1.4-2.9-0.8
					c-0.3,0.2-0.7,0.2-1,0.2c-0.5-0.1-1.3-0.1-1.5-0.5c-0.3-0.5-0.3-1.3-0.1-1.9c0.3-1,1.2-1.4,2.1-1.6c0.9-0.2,1.2-0.7,1.4-1.5
					C29.7,82.2,30.2,80.4,30.6,78.4z"/>
				<path class="st11" d="M66.3,74.3c0.8-0.4,1.3-0.7,2-1.1c0.7,1.2,1.5,2.4,2.1,3.7c0.6,1.3,1.4,1.9,2.8,2.1
					c0.6,0.1,1.3,0.2,1.9,0.5c0.8,0.3,1.2,0.9,1,1.8c-0.2,0.9-0.9,1.4-1.7,1.2c-1.5-0.4-2.3,0.2-3,1.4c-0.7,1.1-1.7,1.1-2.6,0.3
					c-1.1-1-1.2-2.1-0.2-3.1c1.1-1.1,1.1-1.1,0.3-2.5C68,77.2,67.2,75.8,66.3,74.3z"/>
			</g>
			<g>
				<g>
					<path class="st1" d="M37.7,43.8c1.6-0.1,2.7,0,4.3-0.2c0.9-0.1,1.8-0.2,2.6-0.6c4.8-2.1,9.7-3.8,14.9-4.7
						c0.5-0.1,1.3,0,1.4,0.2c0.3,0.7,0.5,1.7,0.3,2.3c-0.3,0.8-0.3,1.5-0.2,2.3c0.3,3.2-1.1,6.1-3.8,7.6c-3.6,1.9-7.7,0.6-9.9-2
						c-0.7-0.8-1.2-1.7-1.9-2.5c-0.2-0.3-0.6-0.4-0.9-0.6c-0.2,0.3-0.4,0.6-0.5,1c-0.3,1.6-0.5,3.3-0.9,4.8c-0.9,3-5,5.5-8.1,5.1
						c-1.9-0.3-3.2-1.5-4.3-2.9c-0.5-0.7-0.9-1.4-1.4-2.1c-0.5-0.8-0.8-1.7-1.7-2.2c-0.5-0.3-0.7-1.2-0.9-1.9c0-0.2,0.3-0.6,0.6-0.7
						c3-0.8,6-1.6,9-2.4c0.3-0.1,0.7-0.3,1-0.4C37.5,43.9,37.7,43.8,37.7,43.8z M37.6,45.2c-1.9,0.5-3.8,0.9-5.6,1.4
						c-1.5,0.4-1.9,1.3-1.4,2.7c0.5,1.4,1.2,2.7,2,3.9c1.1,1.8,4.1,2,5.7,1.2c2.5-1.2,4.4-4.8,3.5-7.9c-0.2-0.8-0.7-1.3-1.5-1.4
						C39.4,45.1,38.5,45.2,37.6,45.2z M55.2,40.6c-0.4,0.1-1.2,0.2-2,0.5c-1.6,0.5-3.3,1-4.8,1.7c-1.4,0.6-1.6,1.8-0.9,3.1
						c0.5,0.9,1.2,1.8,2,2.6c2.1,2,5.8,2.1,7.9,0.2c1.8-1.7,1.9-3.8,1.3-6C58.1,40.6,57.6,40.3,55.2,40.6z"/>
					<path d="M59.6,38.3c0.5-0.1,1.2,0,1.3,0.2c0.3,0.7,0.5,1.7,0.3,2.3c-0.3,0.8-0.3,1.5-0.2,2.3c0.3,3.2-1.1,6.1-3.8,7.6
						c-0.9,0.5-1.8,0.7-2.6,0.8c-2.8,0.4-5.6-0.9-7.2-2.8c-0.7-0.8-1.2-1.7-1.9-2.5c-0.2-0.3-0.6-0.4-0.9-0.6
						c-0.2,0.3-0.4,0.6-0.5,1c-0.3,1.6-0.5,3.3-0.9,4.8c-0.7,2.5-3.7,4.7-6.5,5.1c-0.5,0.1-1.1,0.1-1.6,0c-1.9-0.3-3.2-1.5-4.3-2.9
						c-0.5-0.7-0.9-1.4-1.4-2.1c-0.5-0.8-0.8-1.7-1.7-2.2c-0.5-0.3-0.7-1.2-0.9-1.9c0-0.2,0.3-0.6,0.6-0.7c3-0.8,6-1.6,9-2.4
						c0.3-0.1,0.7-0.3,1-0.4c0.2,0,0.4-0.1,0.4-0.1c1.6-0.1,2.7,0,4.3-0.2c0.2,0,0.4,0,0.6-0.1c0.7-0.1,1.3-0.2,1.9-0.5
						C49.4,41,54.3,39.3,59.6,38.3C59.5,38.4,59.6,38.4,59.6,38.3 M54.4,49.9c1.1-0.1,2.2-0.6,3-1.3c1.8-1.7,1.9-3.8,1.3-6
						c-0.6-1.9-1-2.2-3.2-1.9c-0.1,0-0.1,0-0.2,0c-0.4,0.1-1.2,0.2-2,0.5c-1.6,0.5-3.3,1-4.8,1.7c-1.4,0.6-1.6,1.8-0.9,3.1
						c0.5,0.9,1.2,1.8,2,2.6C50.8,49.7,52.6,50.2,54.4,49.9 M36.9,54.9c0.5-0.1,1-0.2,1.3-0.4c2.5-1.2,4.4-4.8,3.5-7.9
						c-0.2-0.8-0.7-1.3-1.5-1.4c-0.9-0.1-1.8,0-2.7,0c-1.9,0.5-3.8,0.9-5.6,1.4c-1.5,0.4-1.9,1.3-1.4,2.7c0.5,1.4,1.2,2.7,2,3.9
						C33.4,54.6,35.3,55.1,36.9,54.9 M59.4,37.1c-0.1,0-0.1,0-0.2,0c-5,0.9-9.9,2.5-15.2,4.8c-0.4,0.2-0.9,0.3-1.6,0.4
						c-0.2,0-0.4,0-0.6,0.1c-0.9,0.1-1.6,0.1-2.3,0.1c-0.6,0-1.2,0-1.9,0.1l0,0l0,0l-0.4,0.1c-0.3,0-0.6,0.2-0.9,0.3
						C36.1,42.9,36,43,36,43l-0.4,0.1c-2.8,0.8-5.8,1.5-8.6,2.3c-0.6,0.2-1.1,0.7-1.3,1.1c-0.3,0.5-0.2,0.9-0.1,1.2
						c0,0.1,0.1,0.2,0.1,0.3c0.2,0.8,0.5,1.8,1.4,2.3c0.4,0.2,0.6,0.6,0.9,1.1c0.1,0.2,0.2,0.4,0.4,0.7c0.1,0.2,0.2,0.4,0.3,0.5
						c0.3,0.6,0.7,1.2,1.2,1.7c1,1.2,2.6,2.9,5.1,3.3c0.6,0.1,1.2,0.1,1.9,0c3.4-0.4,6.7-3.1,7.6-6c0.3-1.1,0.5-2.1,0.6-3.2
						c0-0.2,0.1-0.4,0.1-0.7c0.1,0.1,0.1,0.1,0.2,0.2c0.3,0.5,0.7,1,1.1,1.4c2,2.4,5.2,3.7,8.3,3.3c1.1-0.1,2.1-0.5,3.1-1
						c3.1-1.6,4.8-5,4.5-8.8c-0.1-0.7-0.1-1.2,0.1-1.7c0.4-1,0.1-2.1-0.3-3.2C61.6,36.9,59.8,37,59.4,37.1L59.4,37.1z M55.5,41.9
						l0.1,0c1.1-0.1,1.4-0.1,1.4,0c0,0,0.2,0.1,0.4,1.1c0.6,2.1,0.3,3.6-0.9,4.8c-0.6,0.5-1.4,0.9-2.3,1c-1.4,0.2-2.9-0.3-3.8-1.2
						c-0.6-0.6-1.2-1.4-1.7-2.3c-0.2-0.4-0.3-0.7-0.2-0.8c0.1-0.2,0.4-0.4,0.6-0.5c1.1-0.5,2.4-0.9,3.7-1.3c0.3-0.1,0.7-0.2,1-0.3
						c0.5-0.2,1-0.3,1.5-0.3C55.2,41.9,55.4,41.9,55.5,41.9L55.5,41.9z M36.7,53.6c-1.1,0.1-2.6-0.2-3.1-1c-0.8-1.2-1.4-2.5-1.9-3.7
						c-0.2-0.4-0.2-0.6-0.1-0.7c0-0.1,0.2-0.2,0.7-0.4c1.3-0.4,2.6-0.7,3.9-1c0.5-0.1,1-0.2,1.6-0.4c0.2,0,0.5,0,0.7,0
						c0.6,0,1.2,0,1.7,0c0.1,0,0.2,0,0.3,0.4c0.7,2.6-1,5.5-2.9,6.5C37.4,53.5,37.1,53.6,36.7,53.6L36.7,53.6z"/>
				</g>
			</g>
		</g>
	</g>
</g>
</svg>
