<?xml version="1.0" encoding="utf-8"?>
<!-- Generator: Adobe Illustrator 24.1.2, SVG Export Plug-In . SVG Version: 6.00 Build 0)  -->
<svg version="1.1" id="Capa_1" xmlns="http://www.w3.org/2000/svg" xmlns:xlink="http://www.w3.org/1999/xlink" x="0px" y="0px"
	 viewBox="0 0 121.7 121.7" style="enable-background:new 0 0 121.7 121.7;" xml:space="preserve">
<style type="text/css">
	.st0{fill-rule:evenodd;clip-rule:evenodd;fill:#A2DEAF;}
	.st1{fill-rule:evenodd;clip-rule:evenodd;fill:#114E4E;}
	.st2{fill-rule:evenodd;clip-rule:evenodd;fill:#FFFFFF;}
	.st3{fill-rule:evenodd;clip-rule:evenodd;fill:#E17334;}
</style>
<desc>Created with Sketch.</desc>
<g id="Tablet_x2B_">
	<g id="_x30_0---App---Tablet_x2B_" transform="translate(-177.000000, -351.000000)">
		<g id="Tarjetas-molonas">
			<g id="Group-2">
				
					<g id="Group" transform="translate(63.191223, 54.437060) rotate(-10.000000) translate(-63.191223, -54.437060) translate(7.318166, 11.294573)">
					<path id="Path" class="st0" d="M211.2,384.8c2.9,0,5.3,1,7.3,3c2,2,3,4.4,3,7.3l0,62c0,2.9-1,5.3-3,7.3c-2,2-4.4,3-7.3,3
						l-89.5,0c-2.9,0-5.3-1-7.3-3c-2-2-3-4.4-3-7.3l0-62c0-2.9,1-5.3,3-7.3c2-2,4.4-3,7.3-3H211.2z"/>
					<path id="Path-Copy" class="st1" d="M210,383.1c2.9,0,5.3,1,7.3,3s3,4.4,3,7.3l0,62c0,2.9-1,5.3-3,7.3c-2,2-4.4,3-7.3,3
						l-89.5,0c-2.9,0-5.3-1-7.3-3c-2-2-3-4.4-3-7.3l0-62c0-2.9,1-5.3,3-7.3c2-2,4.4-3,7.3-3H210z"/>
					<path id="Path_1_" class="st2" d="M213.5,455.4l0-62c0-1-0.3-1.8-1-2.5c-0.6-0.6-1.5-1-2.5-1l-89.5,0c-1,0-1.8,0.3-2.5,1
						c-0.6,0.6-1,1.5-1,2.5l0,62c0,1,0.3,1.8,1,2.5c0.6,0.6,1.5,1,2.5,1l89.5,0c1,0,1.8-0.3,2.5-1S213.5,456.4,213.5,455.4z"/>
					<path id="Combined-Shape" class="st3" d="M181.6,438.2c-0.7,0-1.3-0.3-1.8-0.8s-0.8-1.1-0.8-1.8v-1.7c0-0.7,0.3-1.3,0.8-1.8
						c0.5-0.5,1.1-0.8,1.8-0.8H204c0.7,0,1.3,0.3,1.8,0.8c0.5,0.5,0.8,1.1,0.8,1.8v1.7c0,0.7-0.3,1.3-0.8,1.8
						c-0.5,0.5-1.1,0.8-1.8,0.8H181.6z M181.6,424.4c-0.7,0-1.3-0.3-1.8-0.8c-0.5-0.5-0.8-1.1-0.8-1.8v-1.7c0-0.7,0.3-1.3,0.8-1.8
						c0.5-0.5,1.1-0.8,1.8-0.8H204c0.7,0,1.3,0.3,1.8,0.8c0.5,0.5,0.8,1.1,0.8,1.8v1.7c0,0.7-0.3,1.3-0.8,1.8
						c-0.5,0.5-1.1,0.8-1.8,0.8H181.6z M181.6,410.7c-0.7,0-1.3-0.3-1.8-0.8s-0.8-1.1-0.8-1.8v-1.7c0-0.7,0.3-1.3,0.8-1.8
						c0.5-0.5,1.1-0.8,1.8-0.8l22.4,0c0.7,0,1.3,0.3,1.8,0.8c0.5,0.5,0.8,1.1,0.8,1.8v1.7c0,0.7-0.3,1.3-0.8,1.8
						c-0.5,0.5-1.1,0.8-1.8,0.8H181.6z"/>
					<path id="Combined-Shape_1_" class="st0" d="M161.4,424.9c3.7,1.1,6.6,3.4,8.6,6.7c1.4,2.6,2.2,5.2,2.2,8v3
						c0,2.6-0.9,4.8-2.8,6.7s-4.1,2.8-6.7,2.8h-29.3c-2.6,0-4.8-0.9-6.7-2.8s-2.8-4.1-2.8-6.7v-3c0-2.7,0.7-5.4,2.2-8
						c2-3.3,4.9-5.5,8.6-6.7c-2.6-3.2-3.9-6.7-3.9-10.8c0-4.7,1.7-8.8,5.1-12.2c3.4-3.4,7.4-5.1,12.2-5.1s8.8,1.7,12.2,5.1
						c3.4,3.4,5.1,7.4,5.1,12.2C165.3,418.1,164,421.7,161.4,424.9z M148.1,403.8c-2.9,0-5.3,1-7.3,3s-3,4.4-3,7.3
						c0,2.9,1,5.3,3,7.3c2,2,4.4,3,7.3,3c2.9,0,5.3-1,7.3-3c2-2,3-4.4,3-7.3c0-2.9-1-5.3-3-7.3C153.4,404.8,150.9,403.8,148.1,403.8
						z M165.3,442.5v-3c0-1.9-0.6-3.5-1.7-5.1s-2.7-2.5-4.5-3.1l-4.5-1.3c-2,0.9-4.2,1.3-6.5,1.3c-2.3,0-4.4-0.4-6.5-1.3l-4.5,1.3
						c-1.9,0.6-3.4,1.6-4.5,3.1c-1.1,1.5-1.7,3.2-1.7,5.1v3c0,0.7,0.3,1.3,0.8,1.8c0.5,0.5,1.1,0.8,1.8,0.8l29.3,0
						c0.7,0,1.3-0.3,1.8-0.8C165,443.8,165.3,443.2,165.3,442.5z"/>
				</g>
			</g>
		</g>
	</g>
</g>
</svg>
